<?xml version="1.0" encoding="UTF-8" standalone="no"?>
<!-- Created with Inkscape (http://www.inkscape.org/) -->

<svg
   xmlns:dc="http://purl.org/dc/elements/1.1/"
   xmlns:cc="http://creativecommons.org/ns#"
   xmlns:rdf="http://www.w3.org/1999/02/22-rdf-syntax-ns#"
   xmlns:svg="http://www.w3.org/2000/svg"
   xmlns="http://www.w3.org/2000/svg"
   xmlns:xlink="http://www.w3.org/1999/xlink"
   xmlns:sodipodi="http://sodipodi.sourceforge.net/DTD/sodipodi-0.dtd"
   xmlns:inkscape="http://www.inkscape.org/namespaces/inkscape"
   width="256"
   height="256"
   id="svg2"
   version="1.1"
   inkscape:version="0.48.5 r10040"
   sodipodi:docname="logo-large.svg">
  <defs
     id="defs4">
    <linearGradient
       id="linearGradient3922">
      <stop
         style="stop-color:#b4b4b4;stop-opacity:1;"
         offset="0"
         id="stop3924" />
      <stop
         style="stop-color:#f6f6f6;stop-opacity:1;"
         offset="1"
         id="stop3926" />
    </linearGradient>
    <linearGradient
       inkscape:collect="always"
       xlink:href="#linearGradient3922"
       id="linearGradient3930"
       x1="6.250319"
       y1="30.669571"
       x2="41.163715"
       y2="30.669571"
       gradientUnits="userSpaceOnUse"
       gradientTransform="matrix(6.385548,0,0,6.385548,-22.318285,-238.98753)" />
  </defs>
  <sodipodi:namedview
     id="base"
     pagecolor="#ffffff"
     bordercolor="#666666"
     borderopacity="1.0"
     inkscape:pageopacity="0.0"
     inkscape:pageshadow="2"
     inkscape:zoom="3.959798"
     inkscape:cx="107.89271"
     inkscape:cy="127.78078"
     inkscape:document-units="px"
     inkscape:current-layer="svg2"
     showgrid="false"
     inkscape:window-width="2560"
     inkscape:window-height="1374"
     inkscape:window-x="1920"
     inkscape:window-y="27"
     inkscape:window-maximized="1" />
  <metadata
     id="metadata7">
    <rdf:RDF>
      <cc:Work
         rdf:about="">
        <dc:format>image/svg+xml</dc:format>
        <dc:type
           rdf:resource="http://purl.org/dc/dcmitype/StillImage" />
        <dc:title />
      </cc:Work>
    </rdf:RDF>
  </metadata>
  <g
     inkscape:groupmode="layer"
     id="layer4"
     inkscape:label="Layer#1"
     transform="translate(0,208)">
    <path
       style="fill:url(#linearGradient3930);fill-opacity:1;stroke:none"
       d="m 76.049969,-111.07605 -58.456544,102.3997405 5.24093,40.7180055 217.700245,-2.41889 0,-46.36209 -31.44559,-101.593446 z"
       id="path3920"
       inkscape:connector-curvature="0" />
    <path
       sodipodi:type="arc"
       style="fill:#ff0000;fill-opacity:1;stroke:none"
       id="path3932"
       sodipodi:cx="32.861526"
       sodipodi:cy="29.343744"
       sodipodi:rx="2.9357557"
       sodipodi:ry="1.3573924"
       d="m 35.797282,29.343744 a 2.9357557,1.3573924 0 1 1 -5.871511,0 2.9357557,1.3573924 0 1 1 5.871511,0 z"
       transform="matrix(6.385548,0,0,6.385548,-22.318285,-238.98753)" />
  </g>
  <g
     inkscape:groupmode="layer"
     id="layer3"
     inkscape:label="Layer"
     style="display:inline"
     transform="translate(0,208)">
    <path
       sodipodi:type="arc"
       style="fill:#000000;fill-opacity:1;stroke:none"
       id="path3913"
       sodipodi:cx="23.896421"
       sodipodi:cy="25.492538"
       sodipodi:rx="5.0191956"
       sodipodi:ry="2.4306796"
       d="m 28.915617,25.492538 a 5.0191956,2.4306796 0 1 1 -10.038391,0 5.0191956,2.4306796 0 1 1 10.038391,0 z"
       transform="matrix(6.385548,0,0,6.385548,-21.10884,-243.82531)" />
    <rect
       style="fill:#c0c0c0;fill-opacity:1;stroke:none"
       id="rect3915"
       width="18.54483"
       height="72.566742"
       x="122.41207"
       y="-144.94052"
       ry="6.8535261" />
    <path
       sodipodi:type="arc"
       style="fill:#ffff00;fill-opacity:1;stroke:none"
       id="path3917"
       sodipodi:cx="24.496199"
       sodipodi:cy="9.9614429"
       sodipodi:rx="5.4927044"
       sodipodi:ry="4.1984468"
       d="m 29.988903,9.9614429 a 5.4927044,4.1984468 0 1 1 -10.985409,0 5.4927044,4.1984468 0 1 1 10.985409,0 z"
       transform="matrix(6.385548,0,0,6.385548,-22.318285,-238.98753)" />
  </g>
  <g
     inkscape:label="Layer 1"
     inkscape:groupmode="layer"
     id="layer1"
     transform="translate(0,-796.3622)"
     style="display:inline">
    <path
       style="fill:#000000;fill-opacity:1;stroke:#0000ff;stroke-width:6.38554811;stroke-opacity:1"
       id="path3057"
       d="m 17.549371,997.87573 c 1.268146,7.88397 2.210644,15.81397 3.216157,23.73427 0.510258,4.0676 0.984314,8.1423 1.630119,12.1917 0.112083,0.7028 0.226943,1.4056 0.371863,2.1024 0.260806,1.2541 0.209561,1.3232 0.325554,0.7927 0,0 -4.995494,3.3764 -4.995494,3.3764 l 0,0 c -0.09436,-0.1126 -0.236144,-0.2006 -0.283071,-0.3405 -0.118773,-0.3543 -0.146095,-0.7333 -0.200845,-1.1029 -0.106511,-0.7189 -0.193322,-1.4409 -0.282778,-2.1621 -0.507817,-4.095 -0.955504,-8.1974 -1.441529,-12.2948 -1.004365,-7.8573 -1.958269,-15.7351 -3.60661,-23.4896 0,0 5.266633,-2.80757 5.266633,-2.80757 z"
       inkscape:connector-curvature="0" />
    <path
       style="fill:#000000;fill-opacity:1;stroke:#0000ff;stroke-width:6.38554811;stroke-opacity:1"
       id="path3059"
       d="m 14.225673,1001.2162 c 2.083293,-1.1694 4.131819,-2.40278 6.249879,-3.50764 0.532744,-0.2779 3.367555,-1.18364 3.7634,-1.3087 3.022748,-0.95583 6.076753,-1.78642 9.137064,-2.61175 10.512368,-2.77384 21.274756,-4.41924 32.00458,-6.08624 15.191154,-2.41464 30.512272,-3.7609 45.843814,-4.87574 16.90251,-1.10975 33.78809,-2.44459 50.65836,-3.96438 11.85858,-1.08344 23.76775,-1.84778 35.68126,-1.50508 1.82239,0.0526 3.6424,0.1688 5.46361,0.25302 6.27065,0.42202 12.57849,1.19144 18.56733,3.18515 0.8053,0.2681 1.59016,0.59409 2.38523,0.89104 3.36287,1.41578 6.57116,3.15992 10.06868,4.22957 2.04965,0.51567 4.16032,0.71914 6.25243,0.99232 0.67567,0.0835 1.3524,0.16154 2.03373,0.16335 0.31453,0.15974 0.64816,0.27844 0.97094,0.42129 1.95999,0.90483 -1.11446,0.91518 -5.12383,2.99801 -0.0542,0.0272 -0.0668,-0.10709 -0.11834,-0.13976 -0.0492,-0.0308 -0.11237,-0.0272 -0.16863,-0.0417 0,0 5.05374,-3.27173 5.05374,-3.27173 l 0,0 c 2.14808,1.71219 -2.21104,4.66174 -4.66904,3.80156 -0.26296,-0.11254 -0.54354,-0.2572 -0.83291,-0.24304 -0.68032,-0.0454 -1.35474,-0.14885 -2.02976,-0.24195 -2.09232,-0.31112 -4.20949,-0.52476 -6.24685,-1.11866 -3.45916,-1.14406 -6.6468,-2.89709 -9.99628,-4.31378 -0.77933,-0.29205 -1.54906,-0.61133 -2.338,-0.87652 -5.89319,-1.98064 -12.09806,-2.77584 -18.27374,-3.22381 -5.24524,-0.26555 -5.99996,-0.36375 -11.41402,-0.37808 -9.83877,-0.0254 -19.66127,0.64127 -29.45594,1.52087 -16.87388,1.49656 -33.76147,2.82359 -50.66379,3.95803 -15.371107,1.14424 -30.73004,2.53788 -45.953909,5.01223 -10.800869,1.71873 -21.63363,3.42983 -32.199218,6.31132 -3.093572,0.85999 -6.185411,1.71691 -9.233679,2.72916 -0.709177,0.23544 -1.417875,0.47354 -2.11685,0.73784 -0.563633,0.2131 -2.156599,1.0479 -1.669376,0.6934 1.236053,-0.8994 2.626972,-1.56394 3.940458,-2.34602 0,0 -5.570423,2.15642 -5.570423,2.15642 z"
       inkscape:connector-curvature="0" />
    <path
       style="fill:#000000;fill-opacity:1;stroke:#0000ff;stroke-width:6.38554811;stroke-opacity:1"
       id="path3061"
       d="m 15.630442,1040.7257 c 5.935715,-5.4633 10.87336,-5.3456 18.156286,-5.3553 10.215561,0.3843 20.426995,0.7163 30.650633,0.6876 12.659688,-0.1826 25.281938,-1.2301 37.892739,-2.2751 12.45058,-1.1879 24.94465,-1.7217 37.44373,-2.0178 11.80858,-0.2205 23.61984,-0.2069 35.43,-0.2171 10.10088,0.071 20.19879,0.3345 30.29937,0.1452 7.72924,-0.3035 15.45597,-0.6519 23.18857,-0.8611 4.44443,-0.1525 8.88215,-0.4741 13.33066,-0.4115 1.05971,-0.1016 2.14481,0.199 3.20212,0.1325 0.0769,0 0.14701,-0.047 0.22044,-0.07 -1.7091,0.9259 -3.41821,1.852 -5.12731,2.7778 -0.0313,-0.093 -0.0626,-0.1835 -0.0935,-0.2751 0,0 5.2565,-2.9159 5.2565,-2.9159 l 0,0 c 0.0517,0.1326 0.10309,0.2671 0.15482,0.4004 -1.67594,1.2002 -3.32012,2.4461 -5.02783,3.6007 -0.0732,0.049 -0.17589,-0.018 -0.26379,-0.023 -0.14448,-0.018 -0.28887,-0.023 -0.43339,-0.034 -0.88819,-0.063 -1.77777,-0.1053 -2.66784,-0.1307 -4.39259,-0.087 -8.77778,0.2173 -13.16798,0.3234 -7.70032,0.1796 -15.39449,0.5139 -23.09187,0.7844 -10.07009,0.1452 -20.13613,-0.1543 -30.20598,-0.2247 -11.79819,0 -23.59744,-0.018 -35.39406,0.2069 -12.48142,0.2998 -24.95752,0.8347 -37.390835,2.0185 -12.636953,1.0463 -25.285643,2.0868 -37.971103,2.2791 -5.472793,0.02 -6.058494,0.054 -11.468987,-0.048 -6.454262,-0.1235 -12.903931,-0.4311 -19.359253,-0.505 -3.042127,0.053 -6.140396,0 -9.12189,0.725 -0.627943,0.1525 -2.325052,1.0373 -1.840035,0.6105 1.092892,-0.9622 2.468641,-1.5462 3.729721,-2.2741 0.294375,-0.1706 -0.550675,0.3985 -0.826011,0.5978 0,0 -5.503839,2.3514 -5.503839,2.3514 z"
       inkscape:connector-curvature="0" />
    <path
       style="fill:#000000;fill-opacity:1;stroke:#0000ff;stroke-width:6.38554811;stroke-opacity:1"
       id="path3063"
       d="m 241.62114,986.61971 c 0.28192,7.30816 0.34213,14.62009 0.33325,21.93309 -0.0601,10.4405 -0.31671,20.8768 -0.77626,31.3071 -0.16627,2.2446 -0.0249,1.3085 -0.30726,2.8232 0,0 -5.37888,2.5626 -5.37888,2.5626 l 0,0 c 0.53103,-1.4606 0.26506,-0.5416 0.56385,-2.8143 0.79153,-10.4476 1.06784,-20.922 1.03724,-31.3986 -0.08,-7.2283 -0.21685,-14.45959 -0.77374,-21.66992 0,0 5.30181,-2.74317 5.30181,-2.74317 z"
       inkscape:connector-curvature="0" />
    <path
       style="fill:#000000;fill-opacity:1;stroke:#0000ff;stroke-width:6.38554811;stroke-opacity:1"
       id="path3065"
       d="m 14.409815,995.39339 c 3.173429,-6.55944 6.457842,-13.06423 9.680634,-19.59952 5.981727,-12.30843 12.132758,-24.53287 18.651472,-36.56617 4.847322,-9.0459 10.371796,-17.69763 15.971353,-26.28936 2.119569,-3.17147 4.14491,-6.42284 6.57258,-9.37318 0.08704,0.003 0.604649,-0.80749 0.715024,-0.82099 0.119163,-0.0145 0.147184,0.19177 0.199162,0.3 -0.09514,-0.0751 -0.199162,-0.45753 -0.208614,-0.15719 0,0 4.987296,-3.3998 4.987296,-3.3998 l 0,0 c 0.169735,0.15828 0.316086,0.31372 0.437923,0.51188 0.03386,0.0632 0.261041,0.378 0.203636,0.53561 -0.003,0.009 -0.816051,0.54781 -0.837753,0.70492 -2.601464,2.90307 -4.684698,6.21659 -6.880246,9.4248 -5.71883,8.60156 -11.344668,17.27808 -16.265186,26.36887 -6.541411,11.98134 -12.687801,24.17004 -18.554352,36.49607 -3.110462,6.44853 -6.303166,12.8613 -9.2432,19.38971 0,0 -5.429755,2.47435 -5.429755,2.47435 z"
       inkscape:connector-curvature="0" />
    <path
       style="fill:#000000;fill-opacity:1;stroke:#0000ff;stroke-width:6.38554811;stroke-opacity:1"
       id="path3067"
       d="m 239.7358,985.66604 c -1.08227,-4.18381 -2.17366,-8.36419 -3.38292,-12.51389 -2.40204,-8.1963 -5.13559,-16.28947 -7.66783,-24.44555 -2.93155,-9.79621 -5.88144,-19.58331 -9.26146,-29.23539 -1.78293,-5.00379 -3.90755,-9.88003 -6.41812,-14.56174 -0.94971,-1.77097 -1.89186,-3.34799 -2.90289,-5.07662 -1.63558,-2.86134 -3.33419,-5.69186 -4.88436,-8.60126 -0.32721,-0.67102 -0.74571,-1.31798 -0.84672,-2.06928 -0.0365,-0.25409 0.18576,-0.64813 0.47814,-0.50241 0.1818,0.29148 0.009,-0.037 -0.0211,-0.19636 -0.003,-0.0224 -0.007,-0.0441 -0.0109,-0.0662 0,0 5.34663,-2.81195 5.34663,-2.81195 l 0,0 c 0.001,0.0191 0.003,0.0378 0.005,0.0568 0.003,0.039 0.0492,0.11743 0.009,0.11743 -0.0243,-8e-5 -0.0537,-0.078 -0.0479,-0.0542 0.0269,0.11217 0.16734,0.20747 0.1619,0.33537 0.0614,0.37076 -0.1031,0.58326 -0.4878,0.49955 -0.0307,0.005 -0.081,-0.0145 -0.0916,0.0145 -0.12543,0.34137 0.63543,1.41736 0.67572,1.72375 1.46221,2.94534 3.11631,5.79429 4.70916,8.66944 0.99477,1.74851 1.92368,3.34781 2.85852,5.1369 2.47389,4.73463 4.5673,9.65593 6.33365,14.69683 3.34194,9.67082 6.28283,19.46739 9.26413,29.25407 2.56172,8.13787 5.33489,16.20762 7.82416,24.36853 1.25495,4.10886 2.37607,8.25655 3.59992,12.3734 0,0 -5.24326,2.88784 -5.24326,2.88784 z"
       inkscape:connector-curvature="0" />
    <path
       style="fill:#000000;fill-opacity:1;stroke:#0000ff;stroke-width:6.38554811;stroke-opacity:1"
       id="path3069"
       d="m 115.32009,926.87851 c 0.18104,-7.44368 0.66566,-14.87706 1.08766,-22.31 0.63197,-10.77429 1.28981,-21.54741 1.79426,-32.32862 0.24315,-4.7914 0.52303,-9.58123 0.68252,-14.37639 0.0293,-0.65853 -0.006,-1.31789 0.112,-1.96849 0,0 5.46181,-2.54554 5.46181,-2.54554 l 0,0 c -0.35357,0.53965 -0.1728,1.2442 -0.27823,1.84839 -0.31237,4.84135 -0.6514,9.6809 -0.96782,14.52198 -0.62119,10.79544 -1.35498,21.58436 -1.90405,32.38396 -0.35242,7.34839 -0.77936,14.7076 -0.67351,22.06675 0,0 -5.31465,2.70796 -5.31465,2.70796 z"
       inkscape:connector-curvature="0" />
    <path
       style="fill:#000000;fill-opacity:1;stroke:#0000ff;stroke-width:6.38554811;stroke-opacity:1"
       id="path3075"
       d="m 141.19628,924.52272 c 0.0575,-0.49538 0.13268,-0.98911 0.17292,-1.48624 0.23531,-2.90832 0.23882,-5.84547 0.27675,-8.76036 0.0402,-3.10653 0.0467,-5.48253 0.0638,-8.61181 -0.003,-9.07252 0.15294,-18.144 0.37912,-27.21336 0.14744,-6.03016 0.50784,-12.05079 0.82873,-18.07317 0.0454,-0.93721 0.095,-1.87424 0.1387,-2.81155 0.003,-0.075 0.0134,-0.1501 0.009,-0.22503 -0.002,-0.0403 -0.0654,-0.10042 -0.0287,-0.11654 1.79598,-0.79525 3.62316,-1.51813 5.43474,-2.27719 0.312,2.449 -6.20558,5.54789 -5.51237,2.2921 0.1963,-0.5485 0.36601,-1.10382 0.47362,-1.67659 0.11353,-0.47317 0.0723,-0.92823 -0.0569,-1.39075 -0.15031,-0.46524 -0.18199,-0.95338 -0.32101,-1.42062 -0.0243,-0.0697 -0.0485,-0.1394 -0.0729,-0.20914 0,0 5.27287,-2.91274 5.27287,-2.91274 l 0,0 c 0.0262,0.0764 0.053,0.15284 0.0794,0.22918 0.15127,0.4729 0.21622,0.9489 0.32969,1.43088 0.15682,0.53856 0.28134,1.06906 0.18486,1.63279 -0.1009,0.59539 -0.22171,1.18914 -0.44788,1.75183 -1.00304,2.174 -1.27857,0.9134 -5.56518,3.31441 -0.0383,0.0211 0.0832,0.0601 0.12355,0.0434 0.0764,-0.0312 0.15135,-0.29852 0.16494,-0.33665 1.80336,-0.99302 3.61737,-1.96697 5.4101,-2.97908 0.0217,-0.0127 -0.0511,-0.0594 -0.0647,-0.039 -0.0402,0.0614 -0.0383,0.14104 -0.0498,0.2131 -0.0268,0.17661 -0.046,0.35432 -0.0648,0.53197 -0.0814,0.77752 -0.13913,1.54989 -0.2033,2.32997 -0.45255,6.04744 -0.87606,12.09734 -1.05021,18.16069 -0.25588,9.06791 -0.44865,18.1392 -0.40632,27.21131 0.0165,6.25038 0.14362,12.51195 -0.14074,18.75661 0,0 -5.3582,2.64128 -5.3582,2.64128 z"
       inkscape:connector-curvature="0" />
    <path
       style="fill:#000000;fill-opacity:1;stroke:#0000ff;stroke-width:6.38554811;stroke-opacity:1"
       id="path3081"
       d="m 132.32632,855.2028 c -2.46646,0.21763 -4.91977,-0.13341 -7.25808,-0.93837 -0.66046,-0.2274 -1.3003,-0.51072 -1.95045,-0.76603 -3.77516,-1.69799 -7.21828,-4.10419 -9.94421,-7.23718 -0.60317,-0.69326 -1.13983,-1.44172 -1.70976,-2.16258 -2.73383,-4.0926 -4.49154,-8.81403 -4.65219,-13.76882 -0.032,-0.99122 0.068,-1.98231 0.10203,-2.97349 0.55025,-4.17308 2.24813,-7.95854 5.14494,-11.03662 1.98185,-2.1059 2.95047,-2.59422 5.32799,-4.25292 2.69403,-1.50789 5.33268,-3.11934 8.0821,-4.52372 1.11739,-0.57076 2.31629,-0.96835 3.49763,-1.39115 3.74499,-1.34024 7.64001,-2.29874 11.56654,-2.92305 1.33167,-0.21174 2.67514,-0.34122 4.01269,-0.51182 5.07979,-0.4107 10.28438,-0.0839 14.98563,2.06386 2.93786,1.34211 3.26465,1.89501 5.68939,3.93741 0.71198,0.8918 1.51535,1.71776 2.13593,2.67542 2.0044,3.09314 2.92586,6.72946 3.05135,10.38584 0.12177,3.54815 -0.29157,4.87663 -0.8867,8.39205 -0.40228,1.43354 -0.7405,2.88662 -1.20677,4.30065 -1.73684,5.26714 -4.31247,10.45971 -7.81219,14.78697 -0.77065,0.95287 -1.65001,1.81244 -2.47502,2.71866 -0.90518,0.76106 -1.76271,1.58271 -2.71556,2.28316 -0.92142,0.67736 -1.89726,1.28218 -2.89491,1.84123 -4.82134,2.70177 -6.53039,4.03131 -10.98898,5.21197 -2.61274,0.69186 -3.20699,0.63203 -5.85045,0.86227 -2.52977,0.0748 -5.05267,-0.19053 -7.40091,-1.19342 -0.6475,-0.27649 -1.23888,-0.66934 -1.85832,-1.004 0,0 4.88647,-3.19788 4.88647,-3.19788 l 0,0 c 0.5943,0.31014 1.16216,0.67739 1.78295,0.93038 2.29873,0.93683 4.76062,1.13961 7.21686,1.03532 2.58262,-0.26914 3.19957,-0.22413 5.74563,-0.94529 1.01766,-0.28823 1.99302,-1.34432 3.00214,-1.02744 0.73622,0.23116 -2.57901,1.6483 -1.8524,1.38847 1.75778,-0.62852 4.29682,-2.87165 5.69005,-3.99224 0.8398,-0.88879 1.73458,-1.72869 2.5194,-2.66639 3.55665,-4.24944 6.17844,-9.39814 7.94655,-14.6283 0.47113,-1.39367 0.81412,-2.82746 1.22117,-4.24122 0.60336,-3.45452 1.01432,-4.74042 0.91141,-8.22704 -0.10472,-3.54697 -0.98092,-7.08555 -2.93153,-10.08463 -0.60173,-0.9252 -1.38401,-1.71952 -2.07601,-2.57928 -2.37268,-1.97113 -2.6839,-2.50089 -5.56036,-3.77997 -4.65573,-2.07025 -9.79387,-2.31408 -14.79508,-1.87143 -1.32986,0.17934 -2.66598,0.31722 -3.98957,0.53813 -2.60515,0.43483 -5.31428,1.05679 -7.84727,1.80768 -1.23793,0.36698 -2.46631,0.76969 -3.67619,1.22062 -1.17436,0.43772 -2.23803,1.22263 -3.47169,1.44352 -0.65353,0.11708 1.09932,-0.74477 1.64899,-1.11716 -2.37227,1.58614 -3.362,2.06954 -5.36153,4.0932 -2.91198,2.94711 -4.6739,6.6027 -5.27923,10.68804 -0.046,0.96814 -0.15863,1.9354 -0.13794,2.90441 0.10345,4.85289 1.81673,9.47371 4.5089,13.46787 0.56289,0.70338 1.09259,1.43461 1.68857,2.11015 2.70081,3.06124 6.11368,5.38957 9.85398,6.99184 0.64577,0.2367 1.2817,0.50223 1.93731,0.71011 2.34789,0.7445 4.79735,0.9826 7.24235,0.69191 0,0 -4.81562,3.5603 -4.81562,3.5603 z"
       inkscape:connector-curvature="0" />
    <path
       style="fill:#000000;fill-opacity:1;stroke:#0000ff;stroke-width:6.38554811;stroke-opacity:1"
       id="path3085"
       d="m 199.60473,889.46747 c -3.85292,0.40371 -7.70723,0.78306 -11.57181,1.05858 -4.66354,0.38103 -9.33092,0.36512 -13.97702,-0.1768 -2.89921,-0.44333 -5.71893,-1.25685 -8.65118,-1.46536 -2.06348,-0.15466 -4.10437,0.0606 -6.12636,0.45259 -1.27248,0.37606 -2.55581,0.66747 -3.87701,0.79242 -1.30285,-0.0657 -2.60124,-0.19169 -3.90422,-0.25843 -0.93178,-0.12815 -1.85253,-0.32202 -2.7888,-0.41748 -0.47515,0.0243 -0.90468,-0.24253 -1.37305,-0.27464 -0.11948,-0.009 -0.53147,0.0472 -0.65533,0.0619 -0.22809,0.0939 -0.81155,-0.037 -0.94582,0.22185 0,0 4.75707,-3.72408 4.75707,-3.72408 l 0,0 c 0.33813,0.0717 0.69548,-0.0927 1.03784,-0.055 0.71003,0.0163 1.38062,0.2401 2.08724,0.29514 0.91382,0.13214 1.81846,0.33 2.74007,0.40273 1.28098,0.0769 2.56431,0.23934 3.84818,0.17317 1.29934,-0.17716 2.55842,-0.51973 3.83561,-0.80962 2.04446,-0.34494 4.11196,-0.47903 6.18321,-0.29922 2.90921,0.2908 5.71716,1.09184 8.60596,1.51859 4.61201,0.52368 9.24329,0.51308 13.86927,0.11926 3.91574,-0.30075 7.82025,-0.70882 11.72013,-1.17016 0,0 -4.81398,3.55436 -4.81398,3.55436 z"
       inkscape:connector-curvature="0" />
    <path
       style="fill:#000000;fill-opacity:1;stroke:#0000ff;stroke-width:6.38554811;stroke-opacity:1"
       id="path3087"
       d="m 73.824793,891.59451 c 3.518319,0.36315 7.051003,0.0479 10.559202,-0.26519 4.885556,-0.48659 9.789536,-0.72569 14.695279,-0.87922 3.074596,-0.088 6.150486,-0.11054 9.226096,-0.12996 1.12568,-0.064 2.24033,-0.23742 3.3587,-0.37145 0.42412,-0.0631 0.85346,-0.0497 1.28072,-0.0504 0.32081,-0.18115 0.62731,-0.33031 0.98691,-0.39308 0.23403,-0.0274 0.47457,-0.0224 0.71135,-0.0198 0.018,4.9e-4 0.0358,10e-4 0.0536,0.002 0,0 -4.88143,3.56086 -4.88143,3.56086 l 0,0 c -0.0152,10e-4 -0.0312,0.002 -0.0467,0.003 -0.21314,0.0181 -0.42246,0.0428 -0.62137,0.12742 -0.34961,0.13468 -0.67943,0.31539 -1.07359,0.26615 -0.41327,0.009 -0.82439,0.0415 -1.23439,0.0946 -1.11083,0.12452 -2.22195,0.26902 -3.34187,0.27401 -3.04042,-0.0145 -6.081115,-0.002 -9.120761,0.0746 -4.893837,0.14394 -9.784529,0.39295 -14.656569,0.89285 -3.580147,0.31736 -7.176475,0.6035 -10.769157,0.29252 0,0 4.874154,-3.47974 4.874154,-3.47974 z"
       inkscape:connector-curvature="0" />
    <path
       style="fill:#000000;fill-opacity:1;stroke:#0000ff;stroke-width:6.38554811;stroke-opacity:1"
       id="path3089"
       d="m 197.98308,945.23481 c -4.20206,-1.10655 -8.6152,-0.55651 -12.86121,-0.048 -6.63604,1.08539 -13.25322,2.77279 -19.39919,5.55487 -1.08448,0.49093 -2.12154,1.08049 -3.1823,1.62073 0.76388,-0.40159 1.58718,-1.70327 2.29165,-1.20475 0.65083,0.4606 -1.28648,0.95264 -1.8479,1.51879 -0.92434,0.93211 -2.02679,2.51321 -0.84858,3.74211 0.37891,0.39521 0.90762,0.61257 1.36142,0.91891 0.72257,0.27329 1.4258,0.60451 2.16769,0.81993 6.30755,1.83139 13.49454,1.34129 19.96115,0.95741 5.29974,-0.62559 10.87048,-0.87877 15.97385,-2.5937 0.88633,-0.29781 3.24613,-1.75321 2.58293,-1.09407 -0.79788,0.79299 -2.00836,1.01404 -3.01256,1.52106 0.44476,-0.51768 0.9774,-0.97131 1.33428,-1.5531 1.03649,-1.68968 1.08737,-3.78899 0.19168,-5.55114 -0.80617,-1.58605 -1.55068,-1.92938 -2.91255,-3.01133 -2.57466,-1.5209 -5.46032,-2.05313 -8.38187,-2.39553 0,0 4.77192,-3.37309 4.77192,-3.37309 l 0,0 c 2.98965,0.43115 5.93828,1.04203 8.54032,2.67571 1.46456,1.2068 2.21281,1.56731 3.10235,3.29038 0.97525,1.88903 1.05169,4.17545 0.055,6.07253 -0.33423,0.63612 -0.86145,1.15029 -1.29217,1.72542 -2.30929,1.38855 -4.55972,2.88001 -6.92786,4.16563 -1.52101,0.82575 -4.18903,1.46164 -5.8008,1.79072 -4.18893,0.85473 -8.46311,1.24915 -12.71396,1.63233 -4.52005,0.25647 -9.0158,0.50023 -13.53986,0.12886 -2.16326,-0.17787 -4.64743,-0.51948 -6.75204,-1.15095 -0.78892,-0.23669 -1.53225,-0.60498 -2.29837,-0.90737 -1.02309,-0.7569 -2.01744,-1.13189 -2.24262,-2.53202 -0.64786,-4.02844 9.71312,-8.50834 10.67994,-9.14673 1.06035,-0.51959 2.09951,-1.0849 3.18106,-1.55878 6.21111,-2.72147 12.85698,-4.3992 19.5337,-5.47142 4.37818,-0.51736 8.87427,-1.02953 13.21343,0.0569 0,0 -4.92851,3.39949 -4.92851,3.39949 z"
       inkscape:connector-curvature="0" />
    <path
       style="fill:#cccccc;fill-opacity:1;stroke:#0000ff;stroke-width:6.38554811;stroke-opacity:1"
       id="path3107"
       d="m 112.93198,913.05104 c -3.28157,-0.21474 -6.41883,0.69202 -9.45877,1.82029 -0.59022,0.2954 -2.33498,1.22842 -1.77061,0.88622 1.08368,-0.65708 2.13426,-1.41604 3.33121,-1.83244 0.63037,-0.21929 -1.08177,0.78518 -1.5841,1.22463 -1.63936,1.43419 -2.62052,2.80169 -3.786419,4.60744 -1.129058,2.2302 -2.305894,4.78604 -1.879092,7.36324 0.06261,0.37645 0.200194,0.73632 0.300246,1.1045 1.093016,2.55872 3.494805,3.8481 5.839095,5.07991 3.39784,1.67568 6.89099,3.15828 10.41477,4.54713 3.20582,1.28266 6.52636,2.3446 9.9497,2.86289 0.71714,0.10855 1.44124,0.16482 2.16186,0.24719 4.22993,0.42713 8.46633,0.24654 12.65705,-0.41537 3.89251,-0.73365 7.60111,-2.16158 11.24979,-3.66564 0.51481,-0.24336 1.0348,-0.47599 1.5444,-0.73001 0.47993,-0.23927 1.88703,-1.0191 1.42343,-0.74959 -1.23897,0.7203 -2.45965,1.47941 -3.75032,2.10236 -0.43709,0.21097 0.79659,-0.55593 1.17526,-0.85952 1.00935,-0.80924 1.13818,-1.01357 2.00982,-1.94743 1.85144,-2.20878 3.3721,-4.65708 4.63564,-7.24065 1.35864,-2.9163 2.32667,-6.00527 2.88574,-9.17098 0.43742,-2.94467 -0.68851,-4.72133 -2.26702,-7.07102 -1.27967,-1.64315 -2.51538,-3.64339 -4.51828,-4.49699 -0.32105,-0.13685 -0.6684,-0.20088 -1.0026,-0.30132 0,0 4.91563,-3.32987 4.91563,-3.32987 l 0,0 c 0.35529,0.13504 0.72558,0.23582 1.06581,0.40522 2.01902,1.00541 3.30302,3.00588 4.62704,4.73841 1.65277,2.44528 2.9009,4.38534 2.48525,7.46487 -0.53645,3.21138 -1.51064,6.3448 -2.82737,9.32288 -1.22718,2.63569 -2.73622,5.1147 -4.55434,7.38985 -0.86492,0.99858 -0.96132,1.18299 -1.97436,2.05388 -3.06663,2.63623 -6.83742,4.34771 -10.4796,6.04602 -3.67336,1.47252 -7.4004,2.88133 -11.31958,3.5441 -4.22345,0.59975 -8.48666,0.74507 -12.7362,0.2788 -0.72985,-0.093 -1.46331,-0.16082 -2.18957,-0.27852 -3.44849,-0.55908 -6.78787,-1.64718 -10.02204,-2.94475 -3.54201,-1.4106 -7.06539,-2.88616 -10.483439,-4.57806 -2.49159,-1.32216 -4.964832,-2.75277 -6.120869,-5.47041 -0.115189,-0.4026 -0.269342,-0.79612 -0.345525,-1.20791 -0.497875,-2.68958 0.635679,-5.36967 1.779033,-7.7333 0.345775,-0.57138 0.655618,-1.16612 1.037334,-1.71416 3.069861,-4.40746 7.920476,-6.98057 12.732636,-9.12982 3.14031,-1.0925 6.39163,-1.96622 9.75144,-1.66136 0,0 -4.90205,3.43931 -4.90205,3.43931 z"
       inkscape:connector-curvature="0" />
  </g>
</svg>
