<?xml version="1.0" encoding="UTF-8" standalone="no"?>
<!-- Created with Inkscape (http://www.inkscape.org/) -->

<svg
   xmlns:dc="http://purl.org/dc/elements/1.1/"
   xmlns:cc="http://creativecommons.org/ns#"
   xmlns:rdf="http://www.w3.org/1999/02/22-rdf-syntax-ns#"
   xmlns:svg="http://www.w3.org/2000/svg"
   xmlns="http://www.w3.org/2000/svg"
   xmlns:xlink="http://www.w3.org/1999/xlink"
   xmlns:sodipodi="http://sodipodi.sourceforge.net/DTD/sodipodi-0.dtd"
   xmlns:inkscape="http://www.inkscape.org/namespaces/inkscape"
   width="512"
   height="512"
   id="svg2"
   version="1.1"
   inkscape:version="0.48.5 r10040"
   sodipodi:docname="logo-large.svg">
  <defs
     id="defs4">
    <linearGradient
       id="linearGradient3922">
      <stop
         style="stop-color:#b4b4b4;stop-opacity:1;"
         offset="0"
         id="stop3924" />
      <stop
         style="stop-color:#f6f6f6;stop-opacity:1;"
         offset="1"
         id="stop3926" />
    </linearGradient>
    <linearGradient
       inkscape:collect="always"
       xlink:href="#linearGradient3922"
       id="linearGradient3930"
       x1="6.250319"
       y1="30.669571"
       x2="41.163715"
       y2="30.669571"
       gradientUnits="userSpaceOnUse"
       gradientTransform="matrix(12.802371,0,0,12.802371,-46.051683,-523.18513)" />
  </defs>
  <sodipodi:namedview
     id="base"
     pagecolor="#ffffff"
     bordercolor="#666666"
     borderopacity="1.0"
     inkscape:pageopacity="0.0"
     inkscape:pageshadow="2"
     inkscape:zoom="0.35"
     inkscape:cx="-1103.7856"
     inkscape:cy="-133.67481"
     inkscape:document-units="px"
     inkscape:current-layer="svg2"
     showgrid="false"
     inkscape:window-width="2560"
     inkscape:window-height="1374"
     inkscape:window-x="1920"
     inkscape:window-y="27"
     inkscape:window-maximized="1" />
  <metadata
     id="metadata7">
    <rdf:RDF>
      <cc:Work
         rdf:about="">
        <dc:format>image/svg+xml</dc:format>
        <dc:type
           rdf:resource="http://purl.org/dc/dcmitype/StillImage" />
        <dc:title />
      </cc:Work>
    </rdf:RDF>
  </metadata>
  <g
     inkscape:groupmode="layer"
     id="layer4"
     inkscape:label="Layer#1"
     transform="translate(0,464)">
    <path
       style="fill:url(#linearGradient3930);fill-opacity:1;stroke:none"
       d="m 151.16661,-266.73571 -117.199395,205.301012 10.50753,81.635439 436.466725,-4.849627 0,-92.951251 -63.0452,-203.684463 z"
       id="path3920"
       inkscape:connector-curvature="0" />
    <path
       sodipodi:type="arc"
       style="fill:#ff0000;fill-opacity:1;stroke:none"
       id="path3932"
       sodipodi:cx="32.861526"
       sodipodi:cy="29.343744"
       sodipodi:rx="2.9357557"
       sodipodi:ry="1.3573924"
       d="m 35.797282,29.343744 a 2.9357557,1.3573924 0 1 1 -5.871511,0 2.9357557,1.3573924 0 1 1 5.871511,0 z"
       transform="matrix(12.802371,0,0,12.802371,-46.051683,-523.18513)" />
  </g>
  <g
     inkscape:groupmode="layer"
     id="layer3"
     inkscape:label="Layer"
     style="display:inline"
     transform="translate(0,464)">
    <path
       sodipodi:type="arc"
       style="fill:#000000;fill-opacity:1;stroke:none"
       id="path3913"
       sodipodi:cx="23.896421"
       sodipodi:cy="25.492538"
       sodipodi:rx="5.0191956"
       sodipodi:ry="2.4306796"
       d="m 28.915617,25.492538 a 5.0191956,2.4306796 0 1 1 -10.038391,0 5.0191956,2.4306796 0 1 1 10.038391,0 z"
       transform="matrix(12.802371,0,0,12.802371,-43.626867,-532.8844)" />
    <rect
       style="fill:#c0c0c0;fill-opacity:1;stroke:none"
       id="rect3915"
       width="37.180489"
       height="145.48891"
       x="244.11783"
       y="-334.63052"
       ry="13.74062" />
    <path
       sodipodi:type="arc"
       style="fill:#ffff00;fill-opacity:1;stroke:none"
       id="path3917"
       sodipodi:cx="24.496199"
       sodipodi:cy="9.9614429"
       sodipodi:rx="5.4927044"
       sodipodi:ry="4.1984468"
       d="m 29.988903,9.9614429 a 5.4927044,4.1984468 0 1 1 -10.985409,0 5.4927044,4.1984468 0 1 1 10.985409,0 z"
       transform="matrix(12.802371,0,0,12.802371,-46.051683,-523.18513)" />
  </g>
  <g
     inkscape:label="Layer 1"
     inkscape:groupmode="layer"
     id="layer1"
     transform="translate(0,-540.3622)"
     style="display:inline">
    <path
       style="fill:#000000;fill-opacity:1;stroke:#0000ff;stroke-width:12.80237103;stroke-opacity:1"
       id="path3057"
       d="m 33.878893,947.31791 c 2.542502,15.80645 4.432115,31.70534 6.448066,47.58457 1.023014,8.15522 1.97345,16.32462 3.268222,24.44312 0.224714,1.4091 0.454997,2.8181 0.745547,4.2152 0.522888,2.5143 0.420149,2.6529 0.652702,1.5892 0,0 -10.015455,6.7695 -10.015455,6.7695 l 0,0 c -0.189179,-0.2257 -0.473445,-0.4022 -0.567529,-0.6827 -0.238125,-0.7104 -0.292905,-1.4702 -0.402673,-2.2112 -0.213543,-1.4414 -0.387592,-2.8887 -0.566941,-4.3349 -1.018121,-8.2101 -1.915687,-16.4349 -2.890117,-24.6498 -2.013649,-15.75296 -3.92613,-31.54704 -7.230884,-47.09402 0,0 10.55906,-5.62897 10.55906,-5.62897 z"
       inkscape:connector-curvature="0" />
    <path
       style="fill:#000000;fill-opacity:1;stroke:#0000ff;stroke-width:12.80237103;stroke-opacity:1"
       id="path3059"
       d="m 27.215218,954.01496 c 4.176789,-2.34432 8.283875,-4.81709 12.530368,-7.03221 1.068099,-0.55715 6.751603,-2.37306 7.545233,-2.6238 6.0603,-1.91635 12.183268,-3.5816 18.318879,-5.2363 21.076222,-5.56128 42.653712,-8.86013 64.165912,-12.20229 30.45671,-4.8411 61.17398,-7.54022 91.91215,-9.77536 33.88781,-2.22495 67.74167,-4.90115 101.56482,-7.94817 23.77526,-2.17218 47.65193,-3.70461 71.5373,-3.01754 3.6537,0.10553 7.30263,0.33843 10.95397,0.50729 12.57201,0.84609 25.21859,2.38871 37.2256,6.3859 1.61456,0.53749 3.18811,1.19108 4.78215,1.78643 6.7422,2.83851 13.1745,6.33532 20.18666,8.47985 4.10935,1.03387 8.34101,1.44181 12.53548,1.9895 1.35465,0.16739 2.71142,0.32388 4.07743,0.32751 0.63062,0.32025 1.29949,0.55824 1.94663,0.84464 3.92958,1.81409 -2.23437,1.83484 -10.27275,6.01071 -0.10881,0.0546 -0.13392,-0.21471 -0.23727,-0.28021 -0.0986,-0.0619 -0.22526,-0.0546 -0.33808,-0.0837 0,0 10.13225,-6.55949 10.13225,-6.55949 l 0,0 c 4.30667,3.43277 -4.43293,9.34632 -9.36097,7.62174 -0.5272,-0.22562 -1.08973,-0.51566 -1.66988,-0.48727 -1.36397,-0.091 -2.71612,-0.29841 -4.06947,-0.48509 -4.1949,-0.62375 -8.43959,-1.05207 -12.5243,-2.24278 -6.93526,-2.29373 -13.32615,-5.80838 -20.0415,-8.6487 -1.56249,-0.58553 -3.10572,-1.22565 -4.68746,-1.75732 -11.81526,-3.971 -24.25536,-5.56529 -36.63698,-6.46342 -10.51617,-0.5324 -12.02931,-0.72928 -22.88396,-0.75802 -19.72572,-0.0509 -39.41882,1.28569 -59.05614,3.0492 -33.83039,3.00044 -67.68829,5.66099 -101.57573,7.93543 -30.81748,2.2941 -61.61057,5.0882 -92.13287,10.04903 -21.654639,3.44587 -43.373217,6.87645 -64.556141,12.65353 -6.202294,1.72421 -12.401116,3.44223 -18.512582,5.47176 -1.421827,0.47199 -2.842694,0.94944 -4.244068,1.47929 -1.130027,0.42723 -4.323761,2.10086 -3.346928,1.39014 2.478161,-1.80317 5.266809,-3.13545 7.900215,-4.70354 0,0 -11.168129,4.32326 -11.168129,4.32326 z"
       inkscape:connector-curvature="0" />
    <path
       style="fill:#000000;fill-opacity:1;stroke:#0000ff;stroke-width:12.80237103;stroke-opacity:1"
       id="path3061"
       d="m 30.031636,1033.2277 c 11.900503,-10.9533 21.799975,-10.7175 36.401497,-10.7368 20.481155,0.7704 40.954037,1.436 61.451387,1.3785 25.38138,-0.3661 50.6877,-2.4662 75.97105,-4.5613 24.96214,-2.3818 50.0115,-3.452 75.07086,-4.0456 23.67501,-0.4421 47.35537,-0.4148 71.03352,-0.4352 20.25124,0.1419 40.49652,0.6707 60.74716,0.2911 15.49633,-0.6084 30.98763,-1.3071 46.49069,-1.7264 8.91064,-0.3056 17.80782,-0.9505 26.72661,-0.8249 2.12462,-0.2038 4.30015,0.3988 6.41993,0.2656 0.15429,0 0.29476,-0.095 0.44197,-0.1419 -3.42659,1.8563 -6.85317,3.713 -10.27975,5.5693 -0.0626,-0.1856 -0.12555,-0.3679 -0.18741,-0.5517 0,0 10.53874,-5.8459 10.53874,-5.8459 l 0,0 c 0.10371,0.2657 0.2067,0.5353 0.31041,0.8028 -3.36009,2.4062 -6.6565,4.9041 -10.08028,7.2189 -0.14666,0.098 -0.35263,-0.036 -0.52887,-0.047 -0.28968,-0.036 -0.57917,-0.047 -0.86891,-0.069 -1.78072,-0.1274 -3.56425,-0.2111 -5.34876,-0.2621 -8.8067,-0.1746 -17.59853,0.4356 -26.40043,0.6482 -15.43836,0.3602 -30.86438,1.0306 -46.29684,1.5728 -20.1895,0.2911 -40.3709,-0.3093 -60.55992,-0.4505 -23.65416,0 -47.31044,-0.036 -70.96147,0.4148 -25.02396,0.6012 -50.03728,1.6736 -74.96479,4.0471 -25.3358,2.0976 -50.69513,4.1835 -76.12818,4.5692 -10.97239,0.04 -12.14666,0.1092 -22.994145,-0.098 -12.940137,-0.2475 -25.871063,-0.8643 -38.813325,-1.0124 -6.099154,0.1055 -12.310866,0 -18.288456,1.4534 -1.258963,0.3057 -4.661492,2.0798 -3.689083,1.2239 2.191136,-1.9291 4.949374,-3.0998 7.477711,-4.5591 0.590191,-0.3421 -1.104049,0.7988 -1.656069,1.1984 0,0 -11.034634,4.7144 -11.034634,4.7144 z"
       inkscape:connector-curvature="0" />
    <path
       style="fill:#000000;fill-opacity:1;stroke:#0000ff;stroke-width:12.80237103;stroke-opacity:1"
       id="path3063"
       d="m 483.11988,924.75073 c 0.56522,14.65213 0.68593,29.3119 0.66814,43.97349 -0.12046,20.93213 -0.63499,41.85588 -1.55634,62.76768 -0.33334,4.5001 -0.0499,2.6234 -0.61603,5.6602 0,0 -10.78408,5.1377 -10.78408,5.1377 l 0,0 c 1.06465,-2.9284 0.53141,-1.0859 1.13045,-5.6424 1.58694,-20.9463 2.14092,-41.94652 2.07956,-62.95107 -0.16048,-14.49201 -0.43476,-28.98984 -1.55127,-43.44582 0,0 10.6296,-5.49978 10.6296,-5.49978 z"
       inkscape:connector-curvature="0" />
    <path
       style="fill:#000000;fill-opacity:1;stroke:#0000ff;stroke-width:12.80237103;stroke-opacity:1"
       id="path3065"
       d="m 27.584403,942.34107 c 6.362402,-13.151 12.947314,-26.19246 19.408683,-39.29505 11.99275,-24.67714 24.324938,-49.18589 37.394295,-73.31141 9.718383,-18.1361 20.794389,-35.48196 32.020929,-52.70748 4.24952,-6.35847 8.31012,-12.87716 13.17735,-18.79227 0.1745,0.007 1.21226,-1.61893 1.43355,-1.646 0.23891,-0.0291 0.29509,0.38447 0.3993,0.60147 -0.19076,-0.15066 -0.3993,-0.91731 -0.41825,-0.31515 0,0 9.99902,-6.81626 9.99902,-6.81626 l 0,0 c 0.3403,0.31733 0.63372,0.62898 0.87799,1.02626 0.0679,0.12664 0.52336,0.75788 0.40827,1.07387 -0.006,0.0182 -1.6361,1.09828 -1.67961,1.41328 -5.21567,5.82035 -9.39234,12.46361 -13.79419,18.89576 -11.46567,17.24525 -22.7449,34.64079 -32.610035,52.86688 -13.114861,24.02137 -25.437743,48.45847 -37.199578,73.1709 -6.236159,12.92865 -12.637203,25.7856 -18.531672,38.87437 0,0 -10.886103,4.96083 -10.886103,4.96083 z"
       inkscape:connector-curvature="0" />
    <path
       style="fill:#000000;fill-opacity:1;stroke:#0000ff;stroke-width:12.80237103;stroke-opacity:1"
       id="path3067"
       d="m 479.33997,922.83874 c -2.16985,-8.38813 -4.35797,-16.76936 -6.78241,-25.08908 -4.81585,-16.43274 -10.29634,-32.65874 -15.37322,-49.01084 -5.87745,-19.6404 -11.79168,-39.26252 -18.56828,-58.61397 -3.57458,-10.03207 -7.83423,-19.80842 -12.86769,-29.1948 -1.90405,-3.5506 -3.79297,-6.71236 -5.81999,-10.1781 -3.27916,-5.73668 -6.6847,-11.41158 -9.79264,-17.24463 -0.65603,-1.34534 -1.49506,-2.64242 -1.69757,-4.14872 -0.0731,-0.5094 0.37242,-1.29942 0.95861,-1.00727 0.36449,0.58441 0.0182,-0.0742 -0.0422,-0.39368 -0.007,-0.0448 -0.0146,-0.0884 -0.0218,-0.13282 0,0 10.71946,-5.63767 10.71946,-5.63767 l 0,0 c 0.003,0.0382 0.007,0.0757 0.0109,0.1139 0.007,0.0783 0.0986,0.23545 0.0182,0.23545 -0.0488,-1.8e-4 -0.10772,-0.15648 -0.0961,-0.1088 0.0539,0.22489 0.33552,0.41595 0.32461,0.67239 0.123,0.74333 -0.20671,1.16936 -0.97798,1.00152 -0.0615,0.0109 -0.1623,-0.0291 -0.18377,0.0291 -0.25146,0.68441 1.27398,2.84164 1.35476,3.45592 2.93159,5.9051 6.24787,11.61697 9.44137,17.38134 1.99441,3.50559 3.8568,6.71204 5.73104,10.29896 4.95992,9.49246 9.15698,19.35917 12.69833,29.46565 6.70025,19.38901 12.59644,39.03013 18.57363,58.65142 5.13598,16.3156 10.69591,32.49462 15.68665,48.8564 2.51604,8.23784 4.76377,16.55356 7.21748,24.80742 0,0 -10.51221,5.78981 -10.51221,5.78981 z"
       inkscape:connector-curvature="0" />
    <path
       style="fill:#000000;fill-opacity:1;stroke:#0000ff;stroke-width:12.80237103;stroke-opacity:1"
       id="path3069"
       d="m 229.8992,804.97574 c 0.36296,-14.92382 1.33457,-29.82698 2.18063,-44.72926 1.26705,-21.60136 2.58594,-43.20036 3.5973,-64.81558 0.48751,-9.60626 1.04864,-19.20938 1.36839,-28.82321 0.0589,-1.32026 -0.0127,-2.64224 0.22457,-3.94661 0,0 10.95035,-5.10355 10.95035,-5.10355 l 0,0 c -0.70887,1.08194 -0.34645,2.4945 -0.55781,3.70585 -0.62628,9.7064 -1.306,19.4092 -1.9404,29.11506 -1.24541,21.64375 -2.71658,43.27445 -3.81742,64.92654 -0.70656,14.73277 -1.56252,29.48723 -1.3503,44.24158 0,0 -10.65533,5.42918 -10.65533,5.42918 z"
       inkscape:connector-curvature="0" />
    <path
       style="fill:#000000;fill-opacity:1;stroke:#0000ff;stroke-width:12.80237103;stroke-opacity:1"
       id="path3075"
       d="m 281.7783,800.25262 c 0.11521,-0.99318 0.26602,-1.98306 0.34669,-2.97974 0.47177,-5.8309 0.47881,-11.71959 0.55486,-17.56366 0.0806,-6.22826 0.0935,-10.99188 0.12802,-17.26577 -0.007,-18.18948 0.30663,-36.37689 0.76008,-54.56001 0.29561,-12.08987 1.01817,-24.1606 1.66153,-36.23486 0.0909,-1.87901 0.19036,-3.75766 0.27806,-5.63686 0.007,-0.1503 0.0269,-0.30096 0.0178,-0.45118 -0.005,-0.0808 -0.13108,-0.20124 -0.0576,-0.23363 3.60077,-1.5944 7.26408,-3.04371 10.89611,-4.56555 0.62552,4.90999 -12.44154,11.12296 -11.05174,4.59543 0.39355,-1.0997 0.73383,-2.21305 0.94956,-3.36141 0.22762,-0.94864 0.14491,-1.861 -0.11394,-2.78828 -0.30136,-0.93277 -0.36487,-1.91144 -0.64358,-2.84822 -0.0487,-0.13974 -0.0973,-0.27948 -0.14607,-0.41929 0,0 10.57157,-5.83975 10.57157,-5.83975 l 0,0 c 0.0525,0.15321 0.10626,0.30641 0.15939,0.45947 0.30328,0.94814 0.43349,1.90246 0.66099,2.86878 0.31441,1.07976 0.56407,2.14336 0.37063,3.27356 -0.2023,1.1937 -0.4445,2.38412 -0.89796,3.51225 -2.01099,4.35866 -2.5634,1.83127 -11.15763,6.64507 -0.0768,0.0422 0.16668,0.12046 0.24772,0.087 0.15324,-0.0626 0.30343,-0.59849 0.33068,-0.67495 3.61557,-1.99091 7.25246,-3.94358 10.8467,-5.97275 0.0435,-0.0255 -0.10241,-0.119 -0.1297,-0.0782 -0.0806,0.123 -0.0768,0.28276 -0.0999,0.42723 -0.0538,0.35409 -0.0922,0.71039 -0.12995,1.06655 -0.1631,1.55885 -0.27897,3.10736 -0.40763,4.67134 -0.9073,12.12451 -1.75639,24.25394 -2.10556,36.41033 -0.51299,18.18024 -0.8995,36.36725 -0.81462,54.5559 0.0331,12.53137 0.28793,25.08519 -0.28217,37.60509 0,0 -10.74265,5.29548 -10.74265,5.29548 z"
       inkscape:connector-curvature="0" />
    <path
       style="fill:#000000;fill-opacity:1;stroke:#0000ff;stroke-width:12.80237103;stroke-opacity:1"
       id="path3081"
       d="m 263.99493,661.27328 c -4.94499,0.43632 -9.86362,-0.26748 -14.55172,-1.88135 -1.32414,-0.45591 -2.60696,-1.02393 -3.91043,-1.53581 -7.56881,-3.40431 -14.47192,-8.22849 -19.93712,-14.5098 -1.20931,-1.38992 -2.28526,-2.89051 -3.4279,-4.33574 -5.48105,-8.20527 -9.00508,-17.67124 -9.32718,-27.60509 -0.064,-1.98731 0.13636,-3.97434 0.20459,-5.96154 1.10318,-8.3666 4.50725,-15.95606 10.31505,-22.12729 3.97343,-4.22212 5.9154,-5.20115 10.68208,-8.52668 5.40126,-3.02318 10.69149,-6.25394 16.20379,-9.06959 2.24024,-1.14432 4.64393,-1.94146 7.0124,-2.78912 7.50831,-2.68704 15.31742,-4.60874 23.18971,-5.86042 2.66987,-0.4245 5.36338,-0.68411 8.04506,-1.02615 10.18444,-0.82342 20.6191,-0.16813 30.04465,4.13784 5.89011,2.69079 6.54528,3.7993 11.40663,7.8941 1.42744,1.78796 3.03813,3.44394 4.28232,5.36393 4.01863,6.20143 5.86605,13.49191 6.11764,20.82256 0.24415,7.11368 -0.58455,9.77714 -1.77772,16.82522 -0.80655,2.87409 -1.48465,5.78737 -2.41948,8.62234 -3.48217,10.5601 -8.64603,20.97067 -15.66263,29.64637 -1.54508,1.91042 -3.3081,3.63376 -4.96216,5.45065 -1.8148,1.52584 -3.53405,3.17316 -5.44441,4.57749 -1.84737,1.35804 -3.80382,2.57063 -5.804,3.69147 -9.66629,5.41677 -13.09277,8.08238 -22.03178,10.44947 -5.23827,1.38712 -6.4297,1.26717 -11.72956,1.72876 -5.07193,0.14993 -10.13008,-0.382 -14.83808,-2.39268 -1.29816,-0.55434 -2.48383,-1.34195 -3.72573,-2.01293 0,0 9.79687,-6.41141 9.79687,-6.41141 l 0,0 c 1.19152,0.62181 2.33001,1.35811 3.57464,1.86533 4.6087,1.87825 9.54454,2.28478 14.46907,2.07571 5.17789,-0.53961 6.41482,-0.44936 11.51939,-1.89521 2.0403,-0.57789 3.99581,-2.69523 6.01898,-2.05992 1.47605,0.46344 -5.17065,3.30468 -3.71387,2.78374 3.52418,-1.26012 8.61469,-5.75736 11.40797,-8.00403 1.68371,-1.78193 3.47766,-3.46585 5.05115,-5.34585 7.13071,-8.51969 12.38714,-18.8423 15.93202,-29.32823 0.94456,-2.79418 1.6322,-5.66878 2.4483,-8.50321 1.20969,-6.92598 2.03363,-9.50407 1.82729,-16.49439 -0.20994,-7.11132 -1.96663,-14.20579 -5.8774,-20.21865 -1.20642,-1.85492 -2.7748,-3.44747 -4.1622,-5.1712 -4.75699,-3.95192 -5.38095,-5.01403 -11.14795,-7.57844 -9.33426,-4.15065 -19.63572,-4.63949 -29.66262,-3.75202 -2.66623,0.35954 -5.34502,0.63597 -7.9987,1.07888 -5.22306,0.87179 -10.65458,2.11876 -15.73295,3.62422 -2.48193,0.73576 -4.94472,1.54313 -7.3704,2.44723 -2.35447,0.87757 -4.48701,2.45123 -6.96037,2.89411 -1.31027,0.23472 2.20403,-1.4932 3.30605,-2.2398 -4.75617,3.18003 -6.74046,4.1492 -10.74932,8.20644 -5.83823,5.90866 -9.37069,13.23775 -10.58433,21.42843 -0.0922,1.94102 -0.31802,3.88027 -0.27654,5.82304 0.2074,9.72955 3.64235,18.99383 9.03988,27.00172 1.12853,1.41019 2.19052,2.87624 3.38542,4.23061 5.41484,6.13749 12.2573,10.80555 19.75621,14.01794 1.29471,0.47457 2.56968,1.0069 3.88413,1.42369 4.70726,1.49265 9.61818,1.97003 14.52015,1.38722 0,0 -9.65483,7.13804 -9.65483,7.13804 z"
       inkscape:connector-curvature="0" />
    <path
       style="fill:#000000;fill-opacity:1;stroke:#0000ff;stroke-width:12.80237103;stroke-opacity:1"
       id="path3085"
       d="m 398.88126,729.97044 c -7.72469,0.80938 -15.45219,1.56995 -23.20028,2.12233 -9.34991,0.76392 -18.70753,0.73204 -28.0225,-0.35445 -5.81262,-0.88885 -11.46588,-2.51986 -17.34473,-2.93792 -4.13707,-0.31005 -8.22884,0.12154 -12.28272,0.90741 -2.55121,0.75395 -5.12414,1.33821 -7.77301,1.58872 -2.61208,-0.13173 -5.21523,-0.38432 -7.82757,-0.51813 -1.86812,-0.25692 -3.71414,-0.64562 -5.59126,-0.837 -0.95263,0.0488 -1.81378,-0.48626 -2.75282,-0.55063 -0.23953,-0.0182 -1.06554,0.0946 -1.31387,0.12409 -0.4573,0.18814 -1.62708,-0.0742 -1.89629,0.44477 0,0 9.53747,-7.46638 9.53747,-7.46638 l 0,0 c 0.67789,0.14374 1.39435,-0.18596 2.08075,-0.11027 1.42353,0.0328 2.76799,0.48138 4.18471,0.59172 1.83211,0.26493 3.64583,0.66163 5.49354,0.80744 2.56824,0.1543 5.14119,0.47986 7.71523,0.34717 2.60504,-0.35517 5.12936,-1.04198 7.69,-1.62318 4.09892,-0.69158 8.24405,-0.96043 12.39669,-0.59991 5.83267,0.58302 11.46233,2.18903 17.25407,3.04462 9.24661,1.04992 18.53186,1.02867 27.80648,0.23909 7.85065,-0.60296 15.6788,-1.42111 23.49767,-2.34606 0,0 -9.65156,7.12614 -9.65156,7.12614 z"
       inkscape:connector-curvature="0" />
    <path
       style="fill:#000000;fill-opacity:1;stroke:#0000ff;stroke-width:12.80237103;stroke-opacity:1"
       id="path3087"
       d="m 146.70536,734.23493 c 7.05387,0.72807 14.13654,0.0961 21.17012,-0.53168 9.79504,-0.97557 19.62703,-1.45495 29.46253,-1.76274 6.16425,-0.1765 12.33108,-0.22162 18.49739,-0.26056 2.25687,-0.12846 4.49161,-0.476 6.73383,-0.74471 0.85033,-0.12664 1.7111,-0.0997 2.56772,-0.10117 0.64319,-0.36318 1.2577,-0.66224 1.97866,-0.78808 0.4692,-0.0549 0.95147,-0.0448 1.42619,-0.0397 0.036,10e-4 0.0717,0.003 0.10754,0.004 0,0 -9.78675,7.13916 -9.78675,7.13916 l 0,0 c -0.0306,0.003 -0.0627,0.004 -0.0935,0.007 -0.42734,0.0364 -0.84701,0.0859 -1.2458,0.25547 -0.70093,0.27002 -1.36219,0.63233 -2.15242,0.5336 -0.82857,0.0182 -1.65284,0.0833 -2.47484,0.18959 -2.2271,0.24965 -4.45478,0.53936 -6.70011,0.54936 -6.09572,-0.0291 -12.19202,-0.004 -18.28619,0.14957 -9.81164,0.28858 -19.61698,0.78783 -29.38492,1.79008 -7.17783,0.63626 -14.3881,1.20996 -21.59106,0.58648 0,0 9.77218,-6.97653 9.77218,-6.97653 z"
       inkscape:connector-curvature="0" />
    <path
       style="fill:#000000;fill-opacity:1;stroke:#0000ff;stroke-width:12.80237103;stroke-opacity:1"
       id="path3089"
       d="m 395.63004,841.77823 c -8.42471,-2.21851 -17.27261,-1.11572 -25.78542,-0.0961 -13.30459,2.17611 -26.57136,5.55917 -38.89339,11.13693 -2.17428,0.98427 -4.25346,2.16629 -6.3802,3.24943 1.53151,-0.80515 3.18216,-3.4149 4.59453,-2.41542 1.30485,0.92346 -2.57925,1.90995 -3.70485,3.04502 -1.85321,1.86879 -4.0635,5.03874 -1.70133,7.50256 0.75969,0.79234 1.81969,1.22813 2.72953,1.8423 1.44867,0.54794 2.85859,1.212 4.346,1.64389 12.64598,3.67175 27.05517,2.68915 40.02004,1.91952 10.62545,-1.25425 21.79423,-1.76187 32.02594,-5.2001 1.77701,-0.5971 6.50817,-3.51501 5.17852,-2.19351 -1.59968,1.58986 -4.02656,2.03303 -6.03986,3.04957 0.89169,-1.0379 1.95958,-1.94739 2.67507,-3.1138 2.07807,-3.38764 2.18008,-7.59655 0.38432,-11.12947 -1.6163,-3.17989 -3.10896,-3.86822 -5.83938,-6.03742 -5.16192,-3.04924 -10.94737,-4.1163 -16.8048,-4.80278 0,0 9.56724,-6.7627 9.56724,-6.7627 l 0,0 c 5.99394,0.8644 11.90563,2.08914 17.12246,5.36452 2.93629,2.41949 4.43644,3.14229 6.21989,6.59686 1.95529,3.78732 2.10853,8.37136 0.11026,12.1748 -0.6701,1.27537 -1.72711,2.30621 -2.59067,3.4593 -4.62989,2.78392 -9.14176,5.77413 -13.88963,8.35167 -3.0495,1.65554 -8.39858,2.93043 -11.63003,3.5902 -8.39837,1.71365 -16.96766,2.50443 -25.49019,3.27265 -9.06223,0.5142 -18.07575,1.00293 -27.14602,0.25837 -4.33714,-0.35663 -9.31765,-1.04151 -13.53715,-2.30755 -1.58171,-0.47454 -3.072,-1.21292 -4.608,-1.81919 -2.05119,-1.51751 -4.04478,-2.26931 -4.49623,-5.07644 -1.29889,-8.0766 19.47381,-17.05834 21.41218,-18.33825 2.12591,-1.04173 4.20932,-2.1751 6.37772,-3.12519 12.45264,-5.45626 25.77693,-8.81996 39.16305,-10.96965 8.77781,-1.03725 17.79202,-2.0641 26.49159,0.1139 0,0 -9.88115,6.81565 -9.88115,6.81565 z"
       inkscape:connector-curvature="0" />
    <path
       style="fill:#cccccc;fill-opacity:1;stroke:#0000ff;stroke-width:12.80237103;stroke-opacity:1"
       id="path3107"
       d="m 225.11127,777.25308 c -6.5792,-0.43055 -12.8691,1.38744 -18.96387,3.64951 -1.18333,0.59223 -4.68141,2.46284 -3.54991,1.77676 2.17267,-1.31736 4.27898,-2.83901 6.67874,-3.67386 1.26385,-0.43964 -2.16883,1.5742 -3.17594,2.45527 -3.28676,2.8754 -5.25388,5.6171 -7.59139,9.23746 -2.26364,4.4713 -4.62308,9.59549 -3.76738,14.76254 0.12548,0.75472 0.40136,1.47624 0.60197,2.2144 2.19138,5.12997 7.0067,7.71505 11.70678,10.18469 6.81232,3.35958 13.81573,6.33204 20.88055,9.11654 6.42735,2.57161 13.08467,4.70067 19.94811,5.73981 1.43781,0.21762 2.88956,0.33043 4.33434,0.49558 8.48057,0.85635 16.9741,0.49429 25.37608,-0.83278 7.80408,-1.47089 15.23944,-4.33373 22.55468,-7.34921 1.03213,-0.48793 2.07466,-0.95432 3.09635,-1.46361 0.96223,-0.4797 3.7833,-2.04321 2.85383,-1.50284 -2.484,1.44411 -4.93133,2.96605 -7.51898,4.21499 -0.87633,0.42298 1.59706,-1.11458 2.35625,-1.72322 2.02364,-1.62246 2.28194,-2.03211 4.02949,-3.90443 3.71194,-4.42836 6.76073,-9.33696 9.294,-14.51676 2.72393,-5.84687 4.66472,-12.03994 5.78561,-18.38687 0.87696,-5.90375 -1.38041,-9.46578 -4.54515,-14.17667 -2.5656,-3.29434 -5.04308,-7.30463 -9.05868,-9.016 -0.6437,-0.27438 -1.34009,-0.40274 -2.01012,-0.60412 0,0 9.85534,-6.67605 9.85534,-6.67605 l 0,0 c 0.71232,0.27075 1.45471,0.47279 2.13683,0.81243 4.04794,2.01574 6.62222,6.02647 9.27675,9.50003 3.31362,4.90253 5.81601,8.79215 4.98267,14.96629 -1.07553,6.43849 -3.02867,12.72067 -5.66858,18.69143 -2.46038,5.2843 -5.48586,10.25445 -9.131,14.81588 -1.73408,2.00206 -1.92734,2.37179 -3.9584,4.11783 -6.14827,5.28537 -13.70833,8.71671 -21.0105,12.12164 -7.36473,2.95226 -14.83705,5.77679 -22.69461,7.10557 -8.46758,1.20244 -17.01488,1.49378 -25.53477,0.55897 -1.46329,-0.18632 -2.93379,-0.32242 -4.38987,-0.55842 -6.91388,-1.12088 -13.60898,-3.30242 -20.09317,-5.9039 -7.10137,-2.82813 -14.16538,-5.78647 -21.01823,-9.17855 -4.99538,-2.6508 -9.95398,-5.51903 -12.27171,-10.96761 -0.23094,-0.80719 -0.54,-1.59615 -0.69274,-2.42175 -0.99819,-5.39232 1.27448,-10.76564 3.56677,-15.50448 0.69325,-1.14555 1.31446,-2.33794 2.07976,-3.4367 6.15476,-8.83651 15.87974,-13.99534 25.52763,-18.30437 6.29599,-2.19034 12.81456,-3.94206 19.55062,-3.33084 0,0 -9.82809,6.89545 -9.82809,6.89545 z"
       inkscape:connector-curvature="0" />
  </g>
</svg>
