<?xml version="1.0" encoding="UTF-8" standalone="no"?>
<!-- Created with Inkscape (http://www.inkscape.org/) -->

<svg
   xmlns:dc="http://purl.org/dc/elements/1.1/"
   xmlns:cc="http://creativecommons.org/ns#"
   xmlns:rdf="http://www.w3.org/1999/02/22-rdf-syntax-ns#"
   xmlns:svg="http://www.w3.org/2000/svg"
   xmlns="http://www.w3.org/2000/svg"
   xmlns:xlink="http://www.w3.org/1999/xlink"
   xmlns:sodipodi="http://sodipodi.sourceforge.net/DTD/sodipodi-0.dtd"
   xmlns:inkscape="http://www.inkscape.org/namespaces/inkscape"
   width="48"
   height="48"
   id="svg2"
   version="1.1"
   inkscape:version="0.48.5 r10040"
   sodipodi:docname="New document 1">
  <defs
     id="defs4">
    <linearGradient
       id="linearGradient3922">
      <stop
         style="stop-color:#b4b4b4;stop-opacity:1;"
         offset="0"
         id="stop3924" />
      <stop
         style="stop-color:#f6f6f6;stop-opacity:1;"
         offset="1"
         id="stop3926" />
    </linearGradient>
    <linearGradient
       inkscape:collect="always"
       xlink:href="#linearGradient3922"
       id="linearGradient3930"
       x1="6.250319"
       y1="30.669571"
       x2="41.163715"
       y2="30.669571"
       gradientUnits="userSpaceOnUse" />
  </defs>
  <sodipodi:namedview
     id="base"
     pagecolor="#ffffff"
     bordercolor="#666666"
     borderopacity="1.0"
     inkscape:pageopacity="0.0"
     inkscape:pageshadow="2"
     inkscape:zoom="15.839192"
     inkscape:cx="16.756548"
     inkscape:cy="17.042607"
     inkscape:document-units="px"
     inkscape:current-layer="layer4"
     showgrid="false"
     inkscape:window-width="2560"
     inkscape:window-height="1374"
     inkscape:window-x="1920"
     inkscape:window-y="27"
     inkscape:window-maximized="1" />
  <metadata
     id="metadata7">
    <rdf:RDF>
      <cc:Work
         rdf:about="">
        <dc:format>image/svg+xml</dc:format>
        <dc:type
           rdf:resource="http://purl.org/dc/dcmitype/StillImage" />
        <dc:title></dc:title>
      </cc:Work>
    </rdf:RDF>
  </metadata>
  <g
     inkscape:groupmode="layer"
     id="layer4"
     inkscape:label="Layer#1">
    <path
       style="fill:url(#linearGradient3930);stroke:none;stroke-width:1px;stroke-linecap:butt;stroke-linejoin:miter;stroke-opacity:1;fill-opacity:1.0"
       d="m 15.404826,20.031401 -9.1545071,16.036172 0.8207489,6.376588 34.0926482,-0.378807 0,-7.260472 -4.924493,-15.909902 z"
       id="path3920"
       inkscape:connector-curvature="0" />
    <path
       sodipodi:type="arc"
       style="fill:#ff0000;fill-opacity:1;stroke:none"
       id="path3932"
       sodipodi:cx="32.861526"
       sodipodi:cy="29.343744"
       sodipodi:rx="2.9357557"
       sodipodi:ry="1.3573924"
       d="m 35.797282,29.343744 a 2.9357557,1.3573924 0 1 1 -5.871511,0 2.9357557,1.3573924 0 1 1 5.871511,0 z" />
  </g>
  <g
     inkscape:groupmode="layer"
     id="layer3"
     inkscape:label="Layer"
     sodipodi:insensitive="true"
     style="display:inline">
    <path
       sodipodi:type="arc"
       style="fill:#000000;fill-opacity:1;stroke:none"
       id="path3913"
       sodipodi:cx="23.896421"
       sodipodi:cy="25.492538"
       sodipodi:rx="5.0191956"
       sodipodi:ry="2.4306796"
       d="m 28.915617,25.492538 a 5.0191956,2.4306796 0 1 1 -10.038391,0 5.0191956,2.4306796 0 1 1 10.038391,0 z"
       transform="translate(0.1894036,-0.75761441)" />
    <rect
       style="fill:#c0c0c0;fill-opacity:1;stroke:none"
       id="rect3915"
       width="2.9041877"
       height="11.364217"
       x="22.665297"
       y="14.728101"
       ry="1.0732871" />
    <path
       sodipodi:type="arc"
       style="fill:#ffff00;fill-opacity:1;stroke:none"
       id="path3917"
       sodipodi:cx="24.496199"
       sodipodi:cy="9.9614429"
       sodipodi:rx="5.4927044"
       sodipodi:ry="4.1984468"
       d="m 29.988903,9.9614429 a 5.4927044,4.1984468 0 1 1 -10.985409,0 5.4927044,4.1984468 0 1 1 10.985409,0 z" />
  </g>
  <g
     inkscape:label="Layer 1"
     inkscape:groupmode="layer"
     id="layer1"
     transform="translate(0,-1004.3622)"
     sodipodi:insensitive="true"
     style="display:inline">
    <path
       style="fill:#000000;fill-opacity:1;stroke:#0000ff;stroke-opacity:1"
       id="path3057"
       d="m 6.24342,36.410504 c 0.1985963,1.234643 0.3461949,2.476515 0.503662,3.716863 0.079908,0.637002 0.1541472,1.275138 0.2552826,1.909268 0.017554,0.110065 0.03554,0.220136 0.058235,0.329257 0.040843,0.196381 0.032818,0.207224 0.050983,0.124131 0,0 -0.7823127,0.52876 -0.7823127,0.52876 l 0,0 c -0.014777,-0.01778 -0.036981,-0.03142 -0.04433,-0.05334 -0.0186,-0.05548 -0.022879,-0.114815 -0.031453,-0.172696 -0.01668,-0.112607 -0.030275,-0.22565 -0.044284,-0.338617 -0.079526,-0.641285 -0.1496354,-1.28372 -0.2257486,-1.925407 -0.1572872,-1.23046 -0.3066721,-2.46414 -0.5648082,-3.678534 0,0 0.8247738,-0.439685 0.8247738,-0.439685 z"
       inkscape:connector-curvature="0"
       transform="translate(0,1004.3622)" />
    <path
       style="fill:#000000;fill-opacity:1;stroke:#0000ff;stroke-opacity:1"
       id="path3059"
       d="m 5.7229168,36.933609 c 0.3262512,-0.183097 0.6470579,-0.376252 0.9787537,-0.54929 0.08343,-0.04352 0.5273712,-0.185338 0.5893622,-0.204941 0.4733733,-0.149692 0.9516416,-0.279754 1.4308976,-0.409015 1.6462747,-0.434393 3.3317037,-0.692052 5.0120337,-0.953118 2.37899,-0.378129 4.778332,-0.588958 7.179307,-0.763554 2.646995,-0.173806 5.291338,-0.382846 7.933282,-0.620829 1.857099,-0.169689 3.722118,-0.289376 5.587816,-0.235704 0.285394,0.0082 0.570414,0.02641 0.855621,0.03961 0.982006,0.06609 1.969839,0.186599 2.907712,0.498807 0.126115,0.04198 0.249024,0.09304 0.373536,0.139559 0.526636,0.221697 1.029068,0.494852 1.576791,0.662345 0.320984,0.08075 0.651521,0.112617 0.979152,0.155395 0.105815,0.01297 0.211791,0.02521 0.318491,0.02565 0.04926,0.02514 0.101503,0.04362 0.152054,0.06597 0.30694,0.141693 -0.174528,0.143317 -0.802413,0.469514 -0.0085,0.0044 -0.01045,-0.01674 -0.01852,-0.02186 -0.0077,-0.0049 -0.01761,-0.0044 -0.02641,-0.0066 0,0 0.791435,-0.512365 0.791435,-0.512365 l 0,0 c 0.336396,0.26813 -0.346258,0.730045 -0.73119,0.595325 -0.04118,-0.01753 -0.08512,-0.04027 -0.130435,-0.03804 -0.106541,-0.0072 -0.212157,-0.02329 -0.317869,-0.03791 -0.327665,-0.04872 -0.659221,-0.08217 -0.978281,-0.175181 -0.541715,-0.17915 -1.040911,-0.453685 -1.565452,-0.675543 -0.122046,-0.04575 -0.24259,-0.09574 -0.36614,-0.137266 -0.922897,-0.310181 -1.894599,-0.434702 -2.861733,-0.504879 -0.821424,-0.04158 -0.939617,-0.05695 -1.78748,-0.05921 -1.540785,-0.0041 -3.079024,0.100429 -4.612905,0.238179 -2.64251,0.234369 -5.287169,0.442194 -7.934135,0.619864 -2.40717,0.179173 -4.812434,0.397442 -7.196548,0.784922 -1.691455,0.269152 -3.3879048,0.537118 -5.0425144,0.988371 -0.4844645,0.134673 -0.9686576,0.268882 -1.4460276,0.427396 -0.1110596,0.03688 -0.2220443,0.07417 -0.3315064,0.115548 -0.088267,0.03337 -0.3377313,0.164118 -0.2614303,0.108597 0.1935705,-0.140851 0.4113933,-0.244928 0.6170899,-0.367392 0,0 -0.8723484,0.337675 -0.8723484,0.337675 z"
       inkscape:connector-curvature="0"
       transform="translate(0,1004.3622)" />
    <path
       style="fill:#000000;fill-opacity:1;stroke:#0000ff;stroke-opacity:1"
       id="path3061"
       d="m 5.9429087,43.120975 c 0.9295547,-0.855562 1.7028078,-0.837166 2.8433403,-0.838653 1.599794,0.06017 3.198942,0.112163 4.800001,0.107671 1.982553,-0.02859 3.959243,-0.192653 5.934139,-0.356283 1.949806,-0.186047 3.906425,-0.269659 5.863825,-0.316 1.849268,-0.03454 3.698953,-0.03241 5.548466,-0.03401 1.581836,0.0111 3.163204,0.05238 4.744993,0.0228 1.210426,-0.04752 2.42046,-0.102108 3.631414,-0.134836 0.696014,-0.02385 1.390977,-0.07426 2.087628,-0.06444 0.165955,-0.01594 0.335887,0.03113 0.501466,0.02064 0.01206,-7.64e-4 0.02301,-0.0074 0.03452,-0.01111 -0.267652,0.145014 -0.535304,0.290028 -0.802956,0.435041 -0.0049,-0.01437 -0.0098,-0.02874 -0.01463,-0.04311 0,0 0.823188,-0.456617 0.823188,-0.456617 l 0,0 c 0.0081,0.0209 0.01615,0.0418 0.02423,0.0627 -0.262458,0.18796 -0.519942,0.383067 -0.787375,0.563879 -0.01145,0.0077 -0.02753,-0.0025 -0.04131,-0.0036 -0.02262,-0.0019 -0.04524,-0.0037 -0.06787,-0.0053 -0.139094,-0.0099 -0.278408,-0.01656 -0.417796,-0.02056 -0.687896,-0.01362 -1.37463,0.03403 -2.062151,0.05064 -1.2059,0.02803 -2.410834,0.0805 -3.616272,0.122849 -1.577013,0.0228 -3.153392,-0.02405 -4.730367,-0.0352 -1.847639,-0.0011 -3.695444,-0.0019 -5.542838,0.03242 -1.954635,0.04695 -3.908439,0.130723 -5.85554,0.316101 -1.978993,0.163844 -3.959824,0.326782 -5.946413,0.356918 -0.857059,0.0032 -0.948782,0.0086 -1.796085,-0.0077 -1.010761,-0.01936 -2.0208023,-0.0675 -3.0317294,-0.07909 -0.4764083,0.0083 -0.9616084,1.25e-4 -1.4285212,0.113547 -0.098338,0.02389 -0.3641115,0.162451 -0.2881561,0.09558 0.1711509,-0.150682 0.3865981,-0.242122 0.584088,-0.356119 0.0461,-0.02661 -0.086238,0.06242 -0.1293565,0.09363 0,0 -0.8619211,0.368246 -0.8619211,0.368246 z"
       inkscape:connector-curvature="0"
       transform="translate(0,1004.3622)" />
    <path
       style="fill:#000000;fill-opacity:1;stroke:#0000ff;stroke-opacity:1"
       id="path3063"
       d="m 41.333872,34.64778 c 0.04415,1.144477 0.05358,2.289563 0.05219,3.43478 -0.0094,1.635042 -0.0496,3.269398 -0.121565,4.902823 -0.02603,0.351495 -0.0039,0.204905 -0.04812,0.442137 0,0 -0.84235,0.401303 -0.84235,0.401303 l 0,0 c 0.08316,-0.228758 0.04151,-0.08483 0.0883,-0.440752 0.123957,-1.636111 0.167229,-3.276438 0.162435,-4.917137 -0.01254,-1.131962 -0.03396,-2.264417 -0.12117,-3.393555 0,0 0.830284,-0.429599 0.830284,-0.429599 z"
       inkscape:connector-curvature="0"
       transform="translate(0,1004.3622)" />
    <path
       style="fill:#000000;fill-opacity:1;stroke:#0000ff;stroke-opacity:1"
       id="path3065"
       d="m 5.7517541,36.021766 c 0.4969706,-1.027223 1.0113215,-2.045912 1.5160224,-3.069348 0.9367604,-1.927566 1.9000341,-3.841946 2.9208885,-5.726403 0.759108,-1.416618 1.624261,-2.771515 2.501172,-4.117008 0.331932,-0.496663 0.649108,-1.005843 1.02929,-1.467875 0.01363,6.07e-4 0.09469,-0.126454 0.111975,-0.128569 0.01866,-0.0023 0.02305,0.03003 0.03119,0.04698 -0.0149,-0.01176 -0.03119,-0.07165 -0.03267,-0.02462 0,0 0.781029,-0.53242 0.781029,-0.53242 l 0,0 c 0.02658,0.02478 0.0495,0.04913 0.06858,0.08016 0.0053,0.0099 0.04088,0.0592 0.03189,0.08388 -4.71e-4,0.0013 -0.127797,0.08579 -0.131195,0.110395 -0.407399,0.454629 -0.733641,0.973537 -1.077472,1.475957 -0.895589,1.347036 -1.776616,2.705811 -2.547187,4.129459 -1.0244088,1.876323 -1.9869557,3.785129 -2.9056789,5.715418 -0.4871096,1.009863 -0.9870987,2.014127 -1.4475188,3.03651 0,0 -0.8503192,0.387483 -0.8503192,0.387483 z"
       inkscape:connector-curvature="0"
       transform="translate(0,1004.3622)" />
    <path
       style="fill:#000000;fill-opacity:1;stroke:#0000ff;stroke-opacity:1"
       id="path3067"
       d="m 41.038624,34.498429 c -0.16949,-0.655193 -0.340404,-1.309859 -0.52978,-1.959713 -0.376167,-1.283579 -0.804251,-2.550999 -1.20081,-3.82827 -0.459091,-1.534122 -0.921053,-3.066818 -1.450377,-4.578369 -0.279213,-0.783612 -0.611936,-1.547248 -1.005104,-2.280422 -0.148725,-0.277339 -0.296269,-0.524306 -0.454602,-0.795017 -0.256137,-0.448095 -0.522145,-0.891365 -0.764909,-1.346987 -0.05124,-0.105086 -0.116779,-0.206401 -0.132598,-0.324058 -0.0057,-0.03979 0.02909,-0.101499 0.07488,-0.07868 0.02847,0.04565 0.0015,-0.0058 -0.0033,-0.03075 -5.75e-4,-0.0035 -0.0012,-0.0069 -0.0017,-0.01037 0,0 0.837302,-0.440361 0.837302,-0.440361 l 0,0 c 2.61e-4,0.003 5.21e-4,0.0059 7.82e-4,0.0089 5.97e-4,0.0061 0.0077,0.0184 0.0015,0.01838 -0.0038,-1.5e-5 -0.0084,-0.01221 -0.0075,-0.0085 0.0042,0.01756 0.02621,0.03249 0.02536,0.05252 0.0096,0.05806 -0.01616,0.09134 -0.07639,0.07823 -0.0048,7.97e-4 -0.01269,-0.0022 -0.01436,0.0024 -0.01965,0.05346 0.09951,0.221962 0.105821,0.269944 0.228987,0.461251 0.488025,0.907408 0.73747,1.357666 0.155785,0.273823 0.301257,0.52428 0.447654,0.804458 0.387421,0.741461 0.715256,1.512154 0.991873,2.301578 0.52336,1.514486 0.983916,3.048663 1.450796,4.581294 0.401176,1.274418 0.835464,2.538155 1.225293,3.816177 0.196531,0.643486 0.372102,1.293021 0.563762,1.937746 0,0 -0.821115,0.452224 -0.821115,0.452224 z"
       inkscape:connector-curvature="0"
       transform="translate(0,1004.3622)" />
    <path
       style="fill:#000000;fill-opacity:1;stroke:#0000ff;stroke-opacity:1"
       id="path3069"
       d="m 21.554671,25.292087 c 0.02835,-1.165706 0.104244,-2.329802 0.17033,-3.493825 0.09897,-1.687296 0.201989,-3.374403 0.280987,-5.062782 0.03808,-0.750348 0.08191,-1.500454 0.106886,-2.251394 0.0046,-0.103127 -0.001,-0.206389 0.01754,-0.308271 0,0 0.855337,-0.398642 0.855337,-0.398642 l 0,0 c -0.05537,0.08451 -0.02706,0.194846 -0.04357,0.289464 -0.04892,0.758172 -0.102013,1.516063 -0.151566,2.274193 -0.09728,1.690606 -0.212194,3.380192 -0.298181,5.071448 -0.05519,1.150784 -0.122049,2.303263 -0.105473,3.455734 0,0 -0.832293,0.424075 -0.832293,0.424075 z"
       inkscape:connector-curvature="0"
       transform="translate(0,1004.3622)" />
    <path
       style="fill:#000000;fill-opacity:1;stroke:#0000ff;stroke-opacity:1"
       id="path3075"
       d="m 25.606975,24.923163 c 0.009,-0.07758 0.02078,-0.154899 0.02708,-0.232751 0.03685,-0.455453 0.0374,-0.915422 0.04334,-1.371907 0.0063,-0.486492 0.0073,-0.858581 0.01,-1.348639 -5.51e-4,-1.42079 0.02395,-2.841417 0.05937,-4.26171 0.02309,-0.944346 0.07953,-1.887197 0.129783,-2.830324 0.0071,-0.146771 0.01487,-0.293514 0.02172,-0.440299 5.48e-4,-0.01174 0.0021,-0.0235 0.0014,-0.03524 -3.59e-4,-0.0063 -0.01024,-0.01572 -0.0045,-0.01825 0.281258,-0.124541 0.567401,-0.237745 0.851101,-0.356618 0.04886,0.383522 -0.971815,0.86882 -0.863257,0.358952 0.03074,-0.0859 0.05732,-0.172864 0.07417,-0.262562 0.01778,-0.0741 0.01132,-0.145364 -0.0089,-0.217794 -0.02354,-0.07286 -0.0285,-0.149303 -0.05027,-0.222477 -0.0038,-0.01092 -0.0076,-0.02183 -0.01141,-0.03275 0,0 0.825751,-0.456146 0.825751,-0.456146 l 0,0 c 0.0041,0.01196 0.0083,0.02393 0.01245,0.03589 0.02369,0.07406 0.03386,0.148601 0.05163,0.224081 0.02456,0.08434 0.04406,0.167419 0.02895,0.2557 -0.0158,0.09324 -0.03472,0.186226 -0.07014,0.274342 -0.157079,0.340458 -0.200228,0.143044 -0.871528,0.519052 -0.006,0.0033 0.01302,0.0094 0.01935,0.0068 0.01197,-0.0049 0.0237,-0.04675 0.02583,-0.05272 0.282414,-0.155512 0.566493,-0.308038 0.847241,-0.466536 0.0034,-0.0019 -0.008,-0.0093 -0.01013,-0.0061 -0.0063,0.0096 -0.006,0.02208 -0.0078,0.03337 -0.0042,0.02765 -0.0072,0.05549 -0.01015,0.08331 -0.01274,0.121762 -0.02179,0.242718 -0.03184,0.36488 -0.07087,0.947052 -0.137193,1.89449 -0.164467,2.84403 -0.04007,1.420069 -0.07026,2.840667 -0.06363,4.261391 0.0026,0.978831 0.02249,1.959419 -0.02204,2.937355 0,0 -0.839114,0.413633 -0.839114,0.413633 z"
       inkscape:connector-curvature="0"
       transform="translate(0,1004.3622)" />
    <path
       style="fill:#000000;fill-opacity:1;stroke:#0000ff;stroke-opacity:1"
       id="path3081"
       d="m 24.217907,14.067412 c -0.386256,0.03408 -0.770453,-0.02089 -1.136643,-0.146955 -0.103429,-0.03561 -0.203631,-0.07998 -0.305446,-0.119962 -0.591204,-0.265913 -1.130409,-0.642732 -1.557299,-1.133367 -0.09446,-0.108568 -0.178503,-0.225779 -0.267755,-0.338669 -0.428128,-0.640918 -0.703392,-1.380308 -0.728551,-2.156246 -0.005,-0.15523 0.01065,-0.3104397 0.01598,-0.4656595 0.08617,-0.6535187 0.352064,-1.2463358 0.805714,-1.728376 0.310367,-0.3297908 0.462055,-0.4062633 0.834383,-0.6660229 0.421895,-0.2361436 0.835118,-0.4884989 1.265687,-0.708431 0.174986,-0.089382 0.36274,-0.1516494 0.547742,-0.2178579 0.586478,-0.2098886 1.196452,-0.3599924 1.811361,-0.457761 0.208545,-0.033158 0.418936,-0.053437 0.628404,-0.080155 0.795512,-0.064317 1.610569,-0.013129 2.346803,0.3232091 0.46008,0.2101808 0.511256,0.2967667 0.890978,0.6166126 0.111498,0.1396601 0.23731,0.2690074 0.334495,0.4189804 0.313897,0.484396 0.4582,1.0538594 0.477852,1.626461 0.01907,0.5556538 -0.04566,0.7636967 -0.138859,1.3142252 -0.063,0.224499 -0.115967,0.452057 -0.188987,0.673499 -0.271994,0.824853 -0.675346,1.638029 -1.223416,2.315692 -0.120687,0.149224 -0.258398,0.283836 -0.387597,0.425753 -0.141755,0.119184 -0.276047,0.247857 -0.425266,0.357551 -0.144299,0.106077 -0.297118,0.200792 -0.453353,0.288342 -0.75504,0.423106 -1.022684,0.631319 -1.720915,0.816214 -0.409164,0.108348 -0.502227,0.09898 -0.916202,0.135035 -0.396171,0.0117 -0.791266,-0.02984 -1.15901,-0.186893 -0.1014,-0.0433 -0.194013,-0.104822 -0.291019,-0.157233 0,0 0.765239,-0.500798 0.765239,-0.500798 l 0,0 c 0.09307,0.04857 0.181998,0.106083 0.279217,0.145703 0.359988,0.146711 0.745529,0.178464 1.130187,0.162134 0.404447,-0.04215 0.501065,-0.0351 0.899785,-0.148036 0.159369,-0.04514 0.312115,-0.210525 0.470146,-0.160902 0.115295,0.0362 -0.403882,0.258129 -0.290092,0.217441 0.275275,-0.09843 0.672898,-0.449712 0.891082,-0.625199 0.131516,-0.139189 0.271642,-0.27072 0.394548,-0.417567 0.556984,-0.66548 0.967567,-1.471784 1.244459,-2.290845 0.07378,-0.218256 0.127492,-0.442792 0.191238,-0.664189 0.09449,-0.5409948 0.158848,-0.7423689 0.142731,-1.2883869 C 29.379128,8.689284 29.241913,8.1351308 28.936441,7.6654631 28.842207,7.5205749 28.7197,7.3961788 28.611329,7.2615369 28.239758,6.95285 28.19102,6.8698886 27.740557,6.6695828 27.011453,6.3453741 26.2068,6.3071877 25.423594,6.3765089 c -0.208261,0.028091 -0.417503,0.049677 -0.624783,0.084274 -0.407976,0.068094 -0.832235,0.1654973 -1.228909,0.2830889 -0.193865,0.05747 -0.386235,0.1205355 -0.575706,0.1911548 -0.183909,0.068546 -0.350483,0.1914674 -0.543678,0.2260595 -0.102346,0.018325 0.172158,-0.1166338 0.258237,-0.1749507 -0.371507,0.2483938 -0.526501,0.3240956 -0.839635,0.6410072 -0.456027,0.4615295 -0.73195,1.034009 -0.826748,1.6737875 -0.0072,0.1516134 -0.02484,0.3030904 -0.0216,0.4548402 0.0162,0.7599797 0.284506,1.4836187 0.70611,2.1091187 0.08815,0.110151 0.171102,0.224664 0.264437,0.330455 0.422956,0.479405 0.957424,0.844028 1.543168,1.094948 0.10113,0.03707 0.200719,0.07865 0.303391,0.111208 0.367687,0.116591 0.751281,0.153878 1.134177,0.108356 0,0 -0.754144,0.557556 -0.754144,0.557556 z"
       inkscape:connector-curvature="0"
       transform="translate(0,1004.3622)" />
    <path
       style="fill:#000000;fill-opacity:1;stroke:#0000ff;stroke-opacity:1"
       id="path3085"
       d="m 34.753949,19.433383 c -0.603378,0.06322 -1.206978,0.122631 -1.812184,0.165776 -0.730327,0.05967 -1.461257,0.05718 -2.188854,-0.0277 -0.454027,-0.06943 -0.895606,-0.196828 -1.354806,-0.229483 -0.323149,-0.02423 -0.642759,0.0095 -0.95941,0.07088 -0.199276,0.05889 -0.400249,0.104528 -0.607154,0.124094 -0.204031,-0.0103 -0.407364,-0.03002 -0.611415,-0.04047 -0.14592,-0.02007 -0.290114,-0.05043 -0.436737,-0.06538 -0.07441,0.0038 -0.141675,-0.03798 -0.215024,-0.04301 -0.01871,-0.0013 -0.08323,0.0074 -0.102627,0.0097 -0.03572,0.01469 -0.127092,-0.0058 -0.14812,0.03474 0,0 0.744977,-0.583204 0.744977,-0.583204 l 0,0 c 0.05295,0.01123 0.108913,-0.01451 0.162528,-0.0086 0.111193,0.0025 0.216209,0.0376 0.32687,0.04622 0.143107,0.02068 0.284778,0.05168 0.429103,0.06307 0.200607,0.01206 0.401581,0.03748 0.602641,0.02712 0.203481,-0.02774 0.400657,-0.08139 0.60067,-0.126787 0.320169,-0.05402 0.643947,-0.07502 0.968312,-0.04686 0.455593,0.04554 0.895329,0.170985 1.347725,0.237817 0.722258,0.08201 1.447533,0.08035 2.171978,0.01869 0.613218,-0.0471 1.224679,-0.111005 1.835417,-0.183253 0,0 -0.75389,0.556626 -0.75389,0.556626 z"
       inkscape:connector-curvature="0"
       transform="translate(0,1004.3622)" />
    <path
       style="fill:#000000;fill-opacity:1;stroke:#0000ff;stroke-opacity:1"
       id="path3087"
       d="m 15.056356,19.766484 c 0.550981,0.05687 1.104212,0.0075 1.653609,-0.04153 0.765096,-0.0762 1.533078,-0.113647 2.301334,-0.137689 0.481493,-0.01378 0.963187,-0.01732 1.444841,-0.02034 0.176285,-0.01003 0.350842,-0.03718 0.525983,-0.05817 0.06642,-0.0099 0.133655,-0.0078 0.200566,-0.0079 0.05024,-0.02836 0.09824,-0.05173 0.154554,-0.06156 0.03665,-0.0043 0.07432,-0.0035 0.111401,-0.0031 0.0028,1.01e-4 0.0056,2.03e-4 0.0084,3.04e-4 0,0 -0.764448,0.557643 -0.764448,0.557643 l 0,0 c -0.0024,2.02e-4 -0.0049,4.03e-4 -0.0073,6.05e-4 -0.03338,0.0027 -0.06616,0.0067 -0.09731,0.01997 -0.05475,0.02108 -0.106402,0.04939 -0.168127,0.04168 -0.06472,0.0013 -0.129104,0.0065 -0.193311,0.01482 -0.17396,0.01949 -0.347965,0.04213 -0.523349,0.04291 -0.47614,-0.0022 -0.952325,-2.94e-4 -1.428344,0.01168 -0.766393,0.02253 -1.532293,0.06154 -2.295272,0.139825 -0.560664,0.0497 -1.123862,0.09451 -1.686489,0.04581 0,0 0.76331,-0.544939 0.76331,-0.544939 z"
       inkscape:connector-curvature="0"
       transform="translate(0,1004.3622)" />
    <path
       style="fill:#000000;fill-opacity:1;stroke:#0000ff;stroke-opacity:1"
       id="path3089"
       d="m 34.499996,28.166749 c -0.658059,-0.173289 -1.349174,-0.08715 -2.014114,-0.0075 -1.039228,0.169975 -2.075503,0.43423 -3.037983,0.869912 -0.169834,0.07688 -0.33224,0.169209 -0.498361,0.253813 0.119627,-0.06289 0.24856,-0.266738 0.358881,-0.188668 0.101923,0.07213 -0.201466,0.149186 -0.289387,0.237846 -0.144756,0.145974 -0.317403,0.393581 -0.132892,0.58603 0.05934,0.06189 0.142137,0.09593 0.213205,0.143903 0.113156,0.0428 0.223286,0.09467 0.339468,0.128404 0.987784,0.286803 2.113294,0.210052 3.125986,0.149935 0.829961,-0.09797 1.702359,-0.137621 2.501563,-0.406181 0.138803,-0.04664 0.508359,-0.274561 0.404499,-0.171338 -0.124952,0.124185 -0.314518,0.158802 -0.471778,0.238204 0.06965,-0.08107 0.153064,-0.152112 0.208952,-0.243219 0.16232,-0.26461 0.170286,-0.593371 0.03002,-0.869329 -0.12625,-0.248383 -0.242844,-0.302151 -0.456118,-0.471588 -0.403201,-0.238178 -0.855105,-0.321525 -1.312631,-0.375147 0,0 0.747301,-0.528239 0.747301,-0.528239 l 0,0 c 0.468189,0.06752 0.929955,0.163186 1.337446,0.419027 0.229355,0.188987 0.346531,0.245447 0.485838,0.515283 0.152728,0.295831 0.164699,0.653892 0.0086,0.950981 -0.05234,0.09962 -0.134906,0.18014 -0.202359,0.270209 -0.361642,0.217451 -0.714068,0.451019 -1.084925,0.652352 -0.238197,0.129315 -0.656019,0.228903 -0.908428,0.280416 -0.656,0.133879 -1.325353,0.195647 -1.991053,0.255631 -0.707855,0.04019 -1.411906,0.07834 -2.12039,0.02022 -0.338776,-0.02779 -0.727806,-0.08136 -1.057394,-0.18025 -0.123548,-0.03707 -0.239955,-0.09474 -0.359933,-0.142105 -0.16022,-0.118516 -0.31594,-0.177241 -0.351203,-0.396507 -0.101457,-0.630866 1.52111,-1.332435 1.672517,-1.432411 0.166056,-0.08137 0.328792,-0.169896 0.498167,-0.24411 0.972682,-0.426191 2.01345,-0.68893 3.059048,-0.856844 0.685639,-0.08102 1.389744,-0.161229 2.069272,0.0089 0,0 -0.771824,0.532374 -0.771824,0.532374 z"
       inkscape:connector-curvature="0"
       transform="translate(0,1004.3622)" />
    <path
       style="fill:#cccccc;fill-opacity:1;stroke:#0000ff;stroke-opacity:1"
       id="path3107"
       d="m 21.180683,23.126655 c -0.513905,-0.03363 -1.005212,0.108375 -1.481278,0.285065 -0.09243,0.04626 -0.365667,0.192373 -0.277285,0.138785 0.169708,-0.1029 0.334233,-0.221757 0.52168,-0.286969 0.09872,-0.03434 -0.169409,0.122962 -0.248075,0.191782 -0.25673,0.2246 -0.410383,0.438756 -0.592967,0.721546 -0.176814,0.349255 -0.361111,0.749508 -0.294272,1.153109 0.0098,0.05895 0.03135,0.11531 0.04702,0.172966 0.17117,0.400705 0.547297,0.602628 0.914423,0.795533 0.532114,0.262418 1.079154,0.494599 1.630991,0.712097 0.502043,0.20087 1.02205,0.367173 1.558157,0.448341 0.112308,0.017 0.225705,0.02581 0.338558,0.03871 0.662422,0.06689 1.325856,0.03861 1.982139,-0.06505 0.609581,-0.11489 1.190361,-0.338509 1.761758,-0.574051 0.08062,-0.03811 0.162053,-0.07454 0.241858,-0.114322 0.07516,-0.03747 0.295515,-0.159597 0.222914,-0.117389 -0.194027,0.1128 -0.385189,0.231682 -0.587312,0.329236 -0.06845,0.03304 0.124748,-0.08706 0.184048,-0.134601 0.158068,-0.126731 0.178244,-0.158731 0.314746,-0.304979 0.289941,-0.345899 0.528084,-0.729313 0.725959,-1.133911 0.212768,-0.456701 0.364364,-0.940447 0.451917,-1.436208 0.0685,-0.461144 -0.107824,-0.739378 -0.355024,-1.107347 -0.2004,-0.257323 -0.393917,-0.57057 -0.707578,-0.704243 -0.05028,-0.02143 -0.104675,-0.03146 -0.157012,-0.04719 0,0 0.769806,-0.521471 0.769806,-0.521471 l 0,0 c 0.05564,0.02115 0.113628,0.03693 0.166909,0.06346 0.316187,0.15745 0.517265,0.470732 0.724612,0.742053 0.258829,0.38294 0.454292,0.686759 0.389199,1.169024 -0.08401,0.502915 -0.236571,0.99362 -0.442776,1.459997 -0.192181,0.412762 -0.428503,0.800981 -0.713227,1.157277 -0.13545,0.156382 -0.150546,0.185264 -0.309193,0.321646 -0.480244,0.412844 -1.070765,0.680869 -1.641141,0.946829 -0.575263,0.230603 -1.15893,0.451229 -1.772688,0.555021 -0.661408,0.09392 -1.329042,0.116679 -1.994535,0.04366 -0.114298,-0.01454 -0.22916,-0.02519 -0.342895,-0.04362 -0.540047,-0.08755 -1.063005,-0.257953 -1.569488,-0.461155 -0.554692,-0.220906 -1.106466,-0.451985 -1.641745,-0.716942 -0.390192,-0.207055 -0.777511,-0.431095 -0.95855,-0.856687 -0.01804,-0.06305 -0.04218,-0.124675 -0.05411,-0.189163 -0.07797,-0.421198 0.09955,-0.84091 0.278602,-1.211062 0.05415,-0.08948 0.102673,-0.182619 0.162451,-0.268443 0.480752,-0.690225 1.240375,-1.093185 1.993977,-1.429766 0.491783,-0.171088 1.000952,-0.307916 1.527109,-0.260171 0,0 -0.767677,0.538607 -0.767677,0.538607 z"
       inkscape:connector-curvature="0"
       transform="translate(0,1004.3622)" />
  </g>
</svg>
